<?xml version="1.0" encoding="UTF-8"?>
<!DOCTYPE svg PUBLIC "-//W3C//DTD SVG 1.1//EN" "http://www.w3.org/Graphics/SVG/1.1/DTD/svg11.dtd">
<!-- Creator: CorelDRAW X8 -->
<svg xmlns="http://www.w3.org/2000/svg" xml:space="preserve" width="4363px" height="946px" version="1.1" style="shape-rendering:geometricPrecision; text-rendering:geometricPrecision; image-rendering:optimizeQuality; fill-rule:evenodd; clip-rule:evenodd"
viewBox="0 0 3181 689"
 xmlns:xlink="http://www.w3.org/1999/xlink">
 <defs>
  <style type="text/css">
   <![CDATA[
    .str1 {stroke:#3D4770;stroke-width:6.72962}
    .str0 {stroke:#3D4770;stroke-width:1.72245}
    .fil2 {fill:#3D4770}
    .fil12 {fill:#3D4770}
    .fil1 {fill:#4B6D71}
    .fil6 {fill:#4C6E71}
    .fil4 {fill:#4D6E72}
    .fil5 {fill:#789F86}
    .fil8 {fill:#7CA588}
    .fil9 {fill:#87AE8C}
    .fil7 {fill:#89B28D}
    .fil10 {fill:#989EB3}
    .fil3 {fill:#C0EEA7}
    .fil11 {fill:#EFF0F3}
    .fil0 {fill:#FEFEFE}
   ]]>
  </style>
 </defs>
 <g id="Capa_x0020_1">
  <metadata id="CorelCorpID_0Corel-Layer"/>
  <g id="_2797411900928">
   <path class="fil0" d="M2837 401c69,-33 140,88 49,119 -88,30 -127,-80 -49,-119zm-26 6c-78,76 75,-76 0,0zm151 -19c-6,108 7,-109 0,0zm-329 160c-2,-35 -13,-63 7,-93 13,-22 41,-48 41,-72 0,-26 -24,-71 -11,-91 26,-34 50,2 56,31 26,117 -24,99 -52,164 -24,57 35,132 89,119 28,-6 52,-19 74,-36 43,-31 19,-37 58,0 28,25 48,28 85,23 19,-2 71,-13 77,-32 9,-28 -32,-28 -38,-69 -5,-33 -9,-68 -9,-100 -2,-50 21,-208 39,-61 6,50 -9,165 39,184 47,22 52,-13 56,-47 22,-148 -32,-312 -193,-355 -173,-44 -368,88 -379,275 -2,41 22,140 61,160l0 0z"/>
   <path class="fil1" d="M1379 351l-73 0 0 -106 71 -15 2 121 0 0zm-102 -156c-2,50 9,134 -12,175 -20,37 -115,18 -150,5l-2 -65c19,6 87,45 95,0 -24,-5 -56,10 -78,-13 -17,-15 -17,-52 -8,-72 19,-45 112,-30 155,-30zm195 91l68 -2 -5 62c-86,29 -141,-10 -130,-101 39,-13 33,-24 52,-50l80 4 3 67c-26,0 -72,-21 -68,20l0 0zm-703 63l-80 0 0 -197 80 2 30 43 30 -45 83 0 0 199 -83 -2 0 -93 -28 32 -30 -35 -2 96 0 0zm179 -96l0 -47c31,-15 96,-20 126,4 26,24 17,106 15,139 -30,6 -125,4 -145,-16 -9,-75 30,-58 80,-69 -13,-28 -60,-11 -76,-11l0 0zm358 -140c69,-11 34,-20 58,-48 7,11 13,26 22,35 13,13 28,10 37,15 -35,37 -22,41 -20,80 -69,-30 -19,-20 -78,2 0,-39 15,-56 -24,-80l-2 -2 7 -2 0 0zm-44 36c-69,0 -86,-2 -156,16 -4,2 -47,-13 -65,-16 -17,-2 -73,3 -82,0l-4 -28c-24,-19 -82,-21 -111,-17 -17,2 -39,11 -54,6 -17,-4 -41,-8 -58,-8 -106,2 -93,15 -93,173 0,32 -11,100 19,113 37,15 76,15 115,8 48,-8 67,7 115,5 15,0 43,-9 56,-9 20,2 37,9 58,9 20,0 48,-5 63,0 15,2 28,15 46,21 41,18 69,13 115,13 62,-2 54,-34 97,-34 100,2 76,-22 110,-9 29,11 89,13 117,2 46,-17 37,-56 37,-97 0,-124 15,-150 -119,-150 2,-41 26,-58 -32,-80 -39,-17 -31,-54 -76,-52 -20,2 -28,11 -39,26 -20,28 -11,13 -37,26 -50,26 -28,50 -22,82l0 0z"/>
   <path class="fil1" d="M1522 531l59 -3 -3 111 -54 2 -2 -110 0 0zm689 112l-59 -2 46 -106 84 -2 41 108 -58 0c-7,-17 9,-17 -26,-17 -26,0 -20,-5 -28,19l0 0zm-466 -2l46 -110 84 2 41 108c-101,4 -30,-17 -86,-17 -61,0 28,19 -85,17zm394 0l-56 0 0 -108 56 0 0 108zm-1009 -113c7,-2 89,-2 98,0 2,11 2,35 0,46l-28 -2 -3 65 -56 2 2 -65 -30 -2 2 -41 15 -3 0 0zm940 113l-58 0 -16 -41 -8 0 -5 39 -56 2 2 -108c22,0 111,-7 124,11 15,21 -7,38 -5,49 5,11 22,28 22,48l0 0zm-561 -2l-56 0c-9,-15 -2,-37 -28,-41l2 39 -59 2 0 -111c29,-2 107,-6 124,16 17,23 -4,26 -2,45 2,13 19,30 19,50l0 0zm-173 -69l0 25c-22,5 -35,-8 -37,13l50 5 2 26 -108 0 0 -111 108 0 0 26c-13,3 -39,-4 -48,3 -21,17 26,13 33,13l0 0zm-282 -3c13,3 22,-2 35,0l0 28 -37 3 2 13 52 0 0 26 -110 0 2 -109 106 0 2 26 -52 0 0 13 0 0zm581 74l-28 0c-3,-9 -3,-35 2,-41l-2 -72c62,-2 34,7 71,37l-4 -34 60 0 -2 108c-65,6 -34,-5 -69,-31l0 33 -28 0 0 0zm-752 -7l-41 -106 57 -2 15 35 13 -35 56 0c0,9 -24,63 -28,76 -4,11 -9,30 -20,35 -8,2 -45,0 -52,-3l0 0zm-45 -136c-46,4 -28,39 -20,65 9,20 24,65 33,82 15,26 63,24 89,20 43,-9 54,0 97,0 147,0 292,2 438,2 75,0 149,0 225,2 28,2 82,2 110,-2 28,-7 65,2 98,2 75,0 149,0 223,2 43,2 73,-6 106,-6 30,0 65,17 99,4 39,-15 18,-45 7,-69 -35,-104 -28,-98 -130,-98 -17,0 -33,9 -43,9 -18,0 -24,-9 -48,-9 -39,0 -63,7 -102,3 -28,-5 -80,-5 -106,2 -9,2 -80,-5 -97,-7 -22,0 -31,7 -50,9 -13,0 -28,-7 -46,-9 -67,-2 -153,0 -220,5 -24,2 -70,-5 -102,-5 -37,2 -72,-2 -111,-2 -75,2 -151,0 -225,0 -67,0 -164,-4 -225,0l0 0z"/>
   <path class="fil1" d="M2038 303c-11,93 -217,52 -146,-73 22,-39 87,-46 117,-13 11,13 29,52 22,65 -6,10 -61,0 -74,8 13,33 59,15 81,13zm-349 -147c48,2 154,-15 175,37 13,28 5,65 -15,82 -28,26 -54,4 -82,2l2 76 -80 -2 0 -195 0 0zm448 4c5,0 -4,-4 5,0l0 39 32 0 -2 20 0 24 -35 0 5 49 30 -2 0 54c-28,13 -65,11 -91,-6 -24,-18 -13,-69 -15,-95l-24 -3 95 -80 0 0zm208 163c2,-35 -9,-22 -39,-41 -24,-16 -30,-26 -19,-59 15,-37 99,-28 130,-15l-18 37c-19,-2 -30,-24 -52,0 13,11 46,17 59,26 17,8 15,49 4,65 -19,28 -106,21 -134,6l13 -39 56 20 0 0zm-141 -44c2,-13 22,-23 15,-34 -6,-9 -21,-15 -26,-31 -13,-30 9,-65 44,-58 30,4 43,52 28,74 -15,21 -37,39 -61,49l0 0zm-381 54c33,7 46,50 89,63 39,11 89,11 126,-13 19,-13 23,2 47,11 35,15 89,13 119,-17 22,-22 13,-37 18,-52 28,43 -18,45 65,69 69,22 168,11 179,-71 5,-31 -2,-33 -8,-59 -5,-21 6,-37 4,-58 -4,-44 -45,-52 -82,-54 -20,-3 -54,2 -67,-3 -18,-4 -20,-21 -37,-30 -57,-30 -80,7 -111,-4 -43,-18 -56,4 -91,30 -58,52 -26,20 -82,9 -52,-13 -69,15 -110,-20 -37,-30 -197,-41 -228,-11 -19,20 -21,228 -8,254 13,32 80,24 110,21 93,-4 46,-34 67,-65l0 0z"/>
   <path class="fil0" d="M54 507c4,-2 4,0 7,-2l30 -22c21,19 21,149 115,102 28,-13 45,-46 47,-76 2,-56 -17,-59 -60,-65 -81,-11 -102,-100 -42,-139 33,-19 70,-11 91,18 35,47 9,54 5,95l21 2 20 0 2 -4c-6,-48 -26,-59 13,-102 24,-26 76,-26 97,6 24,31 29,65 3,98 -26,32 -67,24 -104,32 -26,48 -13,126 45,141 87,24 87,-89 102,-112l26 6c11,4 -33,37 -13,76 50,-93 93,-117 26,-256 -30,-75 -93,-130 -175,-145 -85,-17 -174,22 -226,91 -65,89 -45,158 -30,256l0 0z"/>
   <path class="fil2" d="M2633 548c-39,-20 -63,-119 -61,-160 11,-187 206,-319 379,-275 161,43 215,207 193,355 -4,34 -9,69 -56,47 -48,-19 -33,-134 -39,-184 -18,-147 -41,11 -39,61 0,32 4,67 9,100 6,41 47,41 38,69 -6,19 -58,30 -77,32 -37,5 -57,2 -85,-23 -39,-37 -15,-31 -58,0 -22,17 -46,30 -74,36 -54,13 -113,-62 -89,-119 28,-65 78,-47 52,-164 -6,-29 -30,-65 -56,-31 -13,20 11,65 11,91 0,24 -28,50 -41,72 -20,30 -9,58 -7,93l0 0zm208 -474c-180,15 -310,140 -308,324 0,78 53,168 124,195 17,7 35,20 50,26 23,7 54,-2 73,7 26,11 39,71 96,63 41,-7 39,-61 93,-68 58,-6 152,-67 187,-112 13,-20 27,-119 25,-147 -17,-187 -150,-308 -340,-288l0 0z"/>
   <polygon class="fil3" points="771,253 801,288 829,256 829,349 912,351 912,152 829,152 799,197 769,154 689,152 689,349 769,349 "/>
   <path class="fil3" d="M1191 279c-24,-13 -13,-43 13,-43 0,20 6,39 -13,43zm86 -84c-43,0 -136,-15 -155,30 -9,20 -9,57 8,72 22,23 54,8 78,13 -8,45 -76,6 -95,0l2 65c35,13 130,32 150,-5 21,-41 10,-125 12,-175z"/>
   <path class="fil3" d="M1769 197l30 4 -4 35 -26 9 0 -48zm-80 154l80 2 -2 -76c28,2 54,24 82,-2 20,-17 28,-54 15,-82 -21,-52 -127,-35 -175,-37l0 195 0 0z"/>
   <path class="fil3" d="M1011 325c-13,-9 -24,-11 -22,-28 7,-5 22,-5 29,-3 0,9 -3,24 -7,31zm-63 -72c16,0 63,-17 76,11 -50,11 -89,-6 -80,69 20,20 115,22 145,16 2,-33 11,-115 -15,-139 -30,-24 -95,-19 -126,-4l0 47 0 0z"/>
   <path class="fil3" d="M1953 238l39 0c0,18 -24,26 -39,24l0 -24zm85 65c-22,2 -68,20 -81,-13 13,-8 68,2 74,-8 7,-13 -11,-52 -22,-65 -30,-33 -95,-26 -117,13 -71,125 135,166 146,73z"/>
   <path class="fil3" d="M1472 286c-4,-41 42,-20 68,-20l-3 -67 -80 -4c-19,26 -13,37 -52,50 -11,91 44,130 130,101l5 -62 -68 2 0 0z"/>
   <path class="fil3" d="M2345 323l-56 -20 -13 39c28,15 115,22 134,-6 11,-16 13,-57 -4,-65 -13,-9 -46,-15 -59,-26 22,-24 33,-2 52,0l18 -37c-31,-13 -115,-22 -130,15 -11,33 -5,43 19,59 30,19 41,6 39,41l0 0z"/>
   <path class="fil3" d="M2172 219l0 -18c-11,0 -22,3 -33,-2 -2,-13 3,-26 -2,-39l-95 80 24 3c2,26 -9,77 15,95 26,17 63,19 91,6l0 -54 -30 2 -5 -49 35 0 0 -24 0 0z"/>
   <path class="fil2" d="M2837 401c-78,39 -39,149 49,119 91,-31 20,-152 -49,-119z"/>
   <path class="fil3" d="M1427 574l-2 -24 17 2c0,13 -4,22 -15,22l0 0zm82 65c0,-20 -17,-37 -19,-50 -2,-19 19,-22 2,-45 -17,-22 -95,-18 -124,-16l0 111 59 -2 -2 -39c26,4 19,26 28,41l56 0 0 0z"/>
   <path class="fil3" d="M1609 600l-2 39 28 2 28 0 0 -33c35,26 4,37 69,31l2 -108 -60 0 4 34c-37,-30 -9,-39 -71,-37l2 72z"/>
   <path class="fil3" d="M1983 574c0,-11 -2,-17 9,-22 11,5 11,11 11,22l-20 0zm87 67c0,-20 -17,-37 -22,-48 -2,-11 20,-28 5,-49 -13,-18 -102,-11 -124,-11l-2 108 56 -2 5 -39 8 0 16 41 58 0 0 0z"/>
   <path class="fil3" d="M1836 572c2,6 5,15 5,21l-20 5 4 -24 11 -2 0 0zm-91 69c113,2 24,-17 85,-17 56,0 -15,21 86,17l-41 -108 -84 -2 -46 110z"/>
   <path class="fil3" d="M2239 572c4,6 11,17 11,26l-20 0 9 -26zm-28 71c8,-24 2,-19 28,-19 35,0 19,0 26,17l58 0 -41 -108 -84 2 -46 106 59 2 0 0z"/>
   <path class="fil3" d="M883 634c7,3 44,5 52,3 11,-5 16,-24 20,-35 4,-13 28,-67 28,-76l-56 0 -13 35 -15 -35 -57 2 41 106 0 0z"/>
   <path class="fil3" d="M1336 570c-7,0 -54,4 -33,-13 9,-7 35,0 48,-3l0 -26 -108 0 0 111 108 0 -2 -26 -50 -5c2,-21 15,-8 37,-13l0 -25 0 0z"/>
   <path class="fil3" d="M1052 598c9,-5 24,-3 35,-3l0 -25 -26 2c-11,-2 -4,0 -7,-5l0 -13 52 0 -2 -26 -106 0 -2 109 110 0 0 -26 -52 0 -2 -13 0 0z"/>
   <polygon class="fil0" points="398,147 509,243 511,243 496,67 489,63 "/>
   <path class="fil3" d="M1200 572c6,-5 17,0 26,-2l0 -42 -96 0 -15 3 -2 41 30 2 -2 65 56 -2 3 -65 0 0z"/>
   <polygon class="fil3" points="1377,230 1306,245 1306,351 1379,351 "/>
   <path class="fil3" d="M1306 113c-5,0 -7,0 -7,2 0,0 0,0 2,0 0,2 0,2 0,2 39,24 24,41 24,80 59,-22 9,-32 78,-2 -2,-39 -15,-43 20,-80 -9,-5 -24,-2 -37,-15 -9,-9 -15,-24 -22,-35 -24,28 11,37 -58,48l0 0z"/>
   <polygon class="fil0" points="39,238 136,145 138,145 58,74 54,76 "/>
   <path class="fil3" d="M2204 279c24,-10 46,-28 61,-49 15,-22 2,-70 -28,-74 -35,-7 -57,28 -44,58 5,16 20,22 26,31 7,11 -13,21 -15,34l0 0z"/>
   <polygon class="fil3" points="1524,641 1578,639 1581,528 1522,531 "/>
   <polygon class="fil3" points="2139,533 2083,533 2083,641 2139,641 "/>
   <path class="fil0" d="M268 583c-13,15 -15,17 -32,28 -11,6 -33,13 -39,19 19,11 121,15 136,7 0,-18 -8,-7 -36,-26 -11,-9 -20,-22 -29,-28z"/>
   <path class="fil2" d="M2904 383c0,24 56,44 58,5 2,-18 -15,-35 -30,-35 -13,2 -30,15 -28,30z"/>
   <path class="fil2" d="M2767 370c-28,26 13,63 44,35 26,-26 -7,-65 -44,-35z"/>
   <path class="fil0" d="M141 385l0 3c15,13 19,30 49,30 20,0 42,-20 50,-33 -19,-13 -26,-26 -47,-26 -20,0 -39,7 -52,26z"/>
   <path class="fil0" d="M396 388c-58,-31 -43,-29 -97,-3 2,5 34,35 47,33 9,0 26,-2 33,-9l17 -21z"/>
   <polygon class="fil1" points="1769,245 1795,236 1799,201 1769,197 "/>
   <path class="fil1" d="M1191 279c19,-4 13,-23 13,-43 -26,0 -37,30 -13,43z"/>
   <path class="fil4" d="M1953 262c15,2 39,-6 39,-24l-39 0 0 24z"/>
   <path class="fil1" d="M1011 325c4,-7 7,-22 7,-31 -7,-2 -22,-2 -29,3 -2,17 9,19 22,28z"/>
   <path class="fil5" d="M1200 572l28 2c2,-11 2,-35 0,-46 -9,-2 -91,-2 -98,0l96 0 0 42c-9,2 -20,-3 -26,2z"/>
   <path class="fil6" d="M1983 574l20 0c0,-11 0,-17 -11,-22 -11,5 -9,11 -9,22z"/>
   <path class="fil6" d="M1825 574l-4 24 20 -5c0,-6 -3,-15 -5,-21l-11 2 0 0z"/>
   <path class="fil1" d="M1427 574c11,0 15,-9 15,-22l-17 -2 2 24 0 0z"/>
   <path class="fil6" d="M2230 598l20 0c0,-9 -7,-20 -11,-26l-9 26z"/>
   <path class="fil7" d="M1052 598l37 -3 0 -28c-13,-2 -22,3 -35,0 3,5 -4,3 7,5l26 -2 0 25c-11,0 -26,-2 -35,3l0 0z"/>
   <path class="fil8" d="M2172 219l2 -20 -32 0 0 -39c-9,-4 0,0 -5,0 5,13 0,26 2,39 11,5 22,2 33,2l0 18 0 0z"/>
   <path class="fil9" d="M1635 641l-28 -2 2 -39c-5,6 -5,32 -2,41l28 0 0 0z"/>
   <path class="fil10" d="M268 420c7,2 16,2 24,2l-2 -6 -2 4 -20 0 0 0z"/>
   <polygon class="fil10" points="141,388 141,385 136,383 "/>
   <polygon class="fil11" points="396,388 400,388 398,385 "/>
   <ellipse class="fil12 str0" cx="187" cy="394" rx="8" ry="27"/>
   <path class="fil2" d="M268 583c9,6 18,19 29,28 28,19 36,8 36,26 -15,8 -117,4 -136,-7 6,-6 28,-13 39,-19 17,-11 19,-13 32,-28zm128 -195l2 -3 2 3 -4 0 0 0zm0 0l-17 21c-7,7 -24,9 -33,9 -13,2 -45,-28 -47,-33 54,-4 47,-6 97,3zm-255 -3c47,-10 41,-8 99,0 -8,13 -30,33 -50,33 -30,0 -34,-17 -49,-30l-5 -5 5 2 0 0zm-80 120l-7 2c-15,-98 -35,-167 30,-256 52,-69 141,-108 226,-91 82,15 145,70 175,145 2,-13 43,189 6,189 -4,0 -4,-7 -17,-9l-28 -6c-17,23 -15,136 -102,112 -58,-15 -71,-93 -45,-141 37,-8 78,0 104,-32 26,-33 21,-67 -3,-98 -21,-32 -73,-32 -97,-6 -39,43 -19,54 -13,102l2 6c-8,0 -17,0 -24,-2l-21 -2c4,-41 30,-48 -5,-95 -21,-29 -58,-37 -91,-18 -60,39 -39,128 42,139 43,6 62,9 60,65 -2,30 -19,63 -47,76 -94,47 -91,-87 -113,-106l-32 26 0 0zm-7 -429l4 -2 80 71 -2 0 -97 93 15 -162 0 0zm435 -13l7 4 15 176 -2 0 -111 -96 91 -84 0 0zm-450 -54c-15,84 -26,132 -30,218 -22,193 -24,442 266,446 138,5 227,-84 262,-220 13,-61 2,-156 2,-228 0,-84 -15,-145 -26,-225 -28,11 -80,65 -102,89 -67,73 -41,26 -130,26 -30,0 -56,0 -86,8 -35,13 -28,7 -57,-21 -17,-18 -82,-87 -99,-93l0 0z"/>
   <path class="fil0 str1" d="M2919 611c2,30 -24,56 -54,56 -31,2 -57,-22 -59,-54 0,-31 24,-28 54,-31 31,0 59,-4 59,29z"/>
   <ellipse class="fil12 str0" cx="354" cy="394" rx="8" ry="27"/>
  </g>
 </g>
</svg>
