<?xml version="1.0" encoding="UTF-8"?>
<!DOCTYPE svg PUBLIC "-//W3C//DTD SVG 1.1//EN" "http://www.w3.org/Graphics/SVG/1.1/DTD/svg11.dtd">
<!-- Creator: CorelDRAW X8 -->
<svg xmlns="http://www.w3.org/2000/svg" xml:space="preserve" width="4363px" height="946px" version="1.1" style="shape-rendering:geometricPrecision; text-rendering:geometricPrecision; image-rendering:optimizeQuality; fill-rule:evenodd; clip-rule:evenodd"
viewBox="0 0 4320 936"
 xmlns:xlink="http://www.w3.org/1999/xlink">
 <defs>
  <style type="text/css">
   <![CDATA[
    .str1 {stroke:#3D4770;stroke-width:9.13929}
    .str0 {stroke:#3D4770;stroke-width:2.33921}
    .fil1 {fill:#3D4770}
    .fil12 {fill:#3D4770}
    .fil0 {fill:#4B6D71}
    .fil6 {fill:#4C6E71}
    .fil4 {fill:#4D6E72}
    .fil5 {fill:#789F86}
    .fil8 {fill:#7CA588}
    .fil9 {fill:#87AE8C}
    .fil7 {fill:#89B28D}
    .fil10 {fill:#989EB3}
    .fil2 {fill:#C0EEA7}
    .fil11 {fill:#EFF0F3}
    .fil3 {fill:#FEFEFE}
   ]]>
  </style>
 </defs>
 <g id="Capa_x0020_1">
  <metadata id="CorelCorpID_0Corel-Layer"/>
  <path class="fil0" d="M1873 476l-100 0 0 -144 97 -20 3 164 0 0zm-138 -211c-3,67 12,182 -18,238 -26,50 -156,23 -203,6l-3 -88c27,8 118,61 130,0 -33,-6 -77,14 -106,-18 -24,-21 -24,-71 -12,-97 27,-62 153,-41 212,-41zm265 123l91 -3 -6 86c-118,38 -191,-15 -177,-139 53,-17 45,-32 71,-67l109 6 3 91c-36,0 -97,-30 -91,26l0 0zm-956 85l-109 0 0 -267 109 3 41 59 41 -62 112 0 0 270 -112 -3 0 -126 -38 44 -41 -47 -3 129 0 0zm244 -129l0 -65c41,-20 129,-26 170,6 36,33 24,144 21,188 -41,9 -170,6 -197,-20 -12,-103 41,-80 109,-94 -18,-38 -82,-15 -103,-15l0 0zm485 -191c94,-15 47,-27 80,-65 8,15 17,36 29,47 18,18 38,15 50,21 -47,50 -29,56 -27,109 -94,-42 -26,-27 -105,3 0,-53 20,-77 -33,-109l-3 -3 9 -3 0 0zm-59 50c-94,0 -117,-3 -211,20 -6,3 -65,-17 -89,-20 -23,-3 -100,3 -111,0l-6 -38c-33,-27 -112,-30 -150,-24 -24,3 -53,15 -74,9 -23,-6 -56,-12 -79,-12 -144,3 -127,21 -127,235 0,45 -14,136 27,153 50,21 103,21 156,12 64,-12 91,9 156,6 20,0 58,-12 76,-12 27,3 50,12 79,12 27,0 65,-6 86,0 20,3 38,21 61,29 56,24 95,18 156,18 86,-3 74,-47 133,-47 135,3 103,-29 150,-12 38,15 120,18 158,3 62,-23 50,-76 50,-132 0,-168 21,-203 -161,-203 3,-56 35,-79 -44,-109 -53,-23 -42,-73 -103,-70 -27,3 -39,14 -53,35 -27,38 -15,18 -50,35 -68,35 -38,68 -30,112l0 0z"/>
  <path class="fil0" d="M2067 720l80 -2 -3 150 -74 2 -3 -150 0 0zm935 153l-79 -3 62 -144 114 -3 56 147 -79 0c-9,-23 12,-23 -35,-23 -36,0 -27,-6 -39,26l0 0zm-632 -3l62 -150 115 3 55 147c-138,6 -41,-23 -117,-23 -83,0 38,26 -115,23zm535 0l-76 0 0 -147 76 0 0 147zm-1370 -152c9,-3 121,-3 132,0 3,14 3,47 0,61l-38 -3 -3 89 -76 3 3 -89 -42 -3 3 -56 21 -2 0 0zm1276 152l-79 0 -21 -55 -11 0 -6 53 -77 2 3 -147c30,0 150,-8 168,15 20,30 -9,53 -6,68 6,14 29,38 29,64l0 0zm-761 -2l-77 0c-12,-21 -3,-50 -38,-56l3 53 -80 3 0 -150c39,-3 145,-9 168,20 24,32 -6,35 -3,62 3,18 27,41 27,68l0 0zm-236 -95l0 36c-29,6 -47,-12 -50,17l68 6 3 36 -147 0 0 -150 147 0 0 35c-18,3 -53,-6 -65,3 -29,23 36,17 44,17l0 0zm-382 -3c18,3 29,-2 47,0l0 39 -50 3 3 17 71 0 0 36 -150 0 3 -147 144 0 3 35 -71 0 0 17 0 0zm788 100l-38 0c-3,-11 -3,-47 3,-55l-3 -97c85,-3 47,8 97,50l-6 -48 82 0 -3 148c-88,8 -47,-6 -94,-42l0 44 -38 0 0 0zm-1020 -8l-56 -144 76 -3 21 47 18 -47 76 0c0,11 -32,85 -38,103 -6,14 -12,41 -27,47 -11,3 -61,0 -70,-3l0 0zm-62 -186c-62,6 -38,53 -27,89 12,26 33,88 45,111 20,36 85,33 120,27 59,-12 74,0 133,0 199,0 397,3 594,3 102,0 202,0 305,3 39,3 112,3 150,-3 39,-9 89,3 133,3 103,0 203,0 303,3 58,3 100,-9 144,-9 41,0 88,23 135,6 53,-21 24,-62 9,-94 -47,-142 -38,-133 -177,-133 -23,0 -44,12 -58,12 -24,0 -33,-12 -65,-12 -53,0 -85,9 -138,3 -39,-6 -109,-6 -144,3 -12,3 -109,-6 -133,-9 -29,0 -41,9 -67,12 -18,0 -39,-9 -62,-12 -91,-3 -209,0 -300,6 -33,3 -94,-6 -138,-6 -50,3 -97,-3 -150,-3 -103,3 -206,0 -306,0 -91,0 -224,-5 -306,0l0 0z"/>
  <path class="fil0" d="M2767 412c-15,126 -294,70 -197,-100 30,-53 118,-62 159,-18 15,18 38,71 29,88 -8,15 -82,0 -100,12 18,44 80,21 109,18zm-473 -200c64,3 208,-21 238,50 18,38 6,88 -21,111 -38,36 -73,6 -111,3l2 103 -108 -3 0 -264 0 0zm608 6c6,0 -5,-6 6,0l0 53 44 0 -3 26 0 32 -47 0 6 68 41 -3 0 74c-38,17 -88,14 -123,-9 -32,-24 -18,-94 -21,-130l-32 -3 129 -108 0 0zm283 220c3,-47 -12,-29 -53,-56 -33,-20 -41,-35 -27,-79 21,-50 136,-38 177,-21l-24 50c-26,-3 -41,-32 -70,0 17,15 61,24 79,36 24,11 21,67 6,88 -26,38 -144,29 -182,9l17 -53 77 26 0 0zm-191 -59c3,-17 29,-32 20,-47 -9,-11 -29,-20 -35,-41 -18,-41 12,-88 59,-79 41,6 59,70 38,100 -21,29 -50,53 -82,67l0 0zm-518 74c44,9 62,68 121,85 53,15 120,15 170,-17 27,-18 32,2 65,14 47,21 120,18 162,-23 29,-30 17,-50 23,-71 38,59 -23,62 88,94 94,30 230,15 244,-97 6,-41 -3,-44 -11,-79 -6,-30 8,-50 6,-80 -6,-58 -62,-70 -112,-73 -27,-3 -74,3 -91,-3 -24,-6 -27,-29 -50,-41 -77,-41 -109,9 -150,-6 -59,-24 -77,6 -124,41 -79,71 -35,26 -112,12 -70,-18 -94,20 -150,-27 -50,-41 -267,-56 -308,-14 -27,26 -30,308 -12,344 18,44 109,32 150,29 126,-6 62,-47 91,-88l0 0z"/>
  <path class="fil1" d="M3576 744c-53,-26 -85,-162 -82,-218 14,-253 279,-432 514,-373 218,59 291,282 262,482 -6,47 -12,94 -77,65 -64,-27 -44,-182 -52,-250 -24,-200 -56,15 -53,82 0,44 5,91 11,136 9,55 65,55 53,94 -9,26 -79,41 -106,44 -50,6 -76,3 -114,-33 -53,-50 -21,-41 -80,0 -29,24 -61,42 -100,50 -73,18 -153,-85 -120,-161 38,-89 106,-65 70,-224 -9,-38 -41,-88 -76,-41 -18,26 15,88 15,124 0,32 -39,67 -56,97 -27,41 -12,79 -9,126l0 0zm282 -644c-244,21 -420,191 -417,441 0,106 71,227 167,265 24,9 47,26 68,35 32,9 73,-3 100,9 35,15 53,97 129,85 56,-9 53,-82 127,-91 78,-8 206,-92 253,-153 18,-26 38,-162 35,-200 -24,-253 -203,-417 -462,-391l0 0z"/>
  <polygon class="fil2" points="1047,344 1088,391 1126,347 1126,473 1238,476 1238,206 1126,206 1085,268 1044,209 935,206 935,473 1044,473 "/>
  <path class="fil2" d="M1617 379c-32,-17 -17,-58 18,-58 0,26 9,52 -18,58zm118 -114c-59,0 -185,-21 -212,41 -12,26 -12,76 12,97 29,32 73,12 106,18 -12,61 -103,8 -130,0l3 88c47,17 177,44 203,-6 30,-56 15,-171 18,-238z"/>
  <path class="fil2" d="M2402 268l42 5 -6 48 -36 11 0 -64zm-108 208l108 3 -2 -103c38,3 73,33 111,-3 27,-23 39,-73 21,-111 -30,-71 -174,-47 -238,-50l0 264 0 0z"/>
  <path class="fil2" d="M1373 441c-17,-12 -32,-15 -29,-38 9,-6 29,-6 38,-3 0,12 -3,32 -9,41zm-85 -97c21,0 85,-23 103,15 -68,14 -121,-9 -109,94 27,26 156,29 197,20 3,-44 15,-155 -21,-188 -41,-32 -129,-26 -170,-6l0 65 0 0z"/>
  <path class="fil2" d="M2652 323l53 0c0,24 -32,36 -53,33l0 -33zm115 89c-29,3 -91,26 -109,-18 18,-12 92,3 100,-12 9,-17 -14,-70 -29,-88 -41,-44 -129,-35 -159,18 -97,170 182,226 197,100z"/>
  <path class="fil2" d="M2000 388c-6,-56 55,-26 91,-26l-3 -91 -109 -6c-26,35 -18,50 -71,67 -14,124 59,177 177,139l6 -86 -91 3 0 0z"/>
  <path class="fil2" d="M3185 438l-77 -26 -17 53c38,20 155,29 182,-9 15,-21 18,-77 -6,-88 -18,-12 -62,-21 -79,-36 29,-32 44,-3 70,0l24 -50c-41,-17 -156,-29 -177,21 -14,44 -6,59 27,79 41,27 56,9 53,56l0 0z"/>
  <path class="fil2" d="M2949 297l0 -24c-14,0 -29,3 -44,-2 -3,-18 3,-36 -3,-53l-129 108 32 3c3,36 -11,106 21,130 35,23 85,26 123,9l0 -74 -41 3 -6 -68 47 0 0 -32 0 0z"/>
  <path class="fil1" d="M3852 544c-106,53 -53,203 68,162 123,-41 26,-206 -68,-162z"/>
  <path class="fil2" d="M1938 779l-3 -32 23 3c0,18 -5,29 -20,29l0 0zm112 89c0,-27 -24,-50 -27,-68 -3,-27 27,-30 3,-62 -23,-29 -129,-23 -168,-20l0 150 80 -3 -3 -53c35,6 26,35 38,56l77 0 0 0z"/>
  <path class="fil2" d="M2185 815l-3 53 38 2 38 0 0 -44c47,36 6,50 94,42l3 -148 -82 0 6 48c-50,-42 -12,-53 -97,-50l3 97z"/>
  <path class="fil2" d="M2694 779c0,-14 -3,-23 11,-29 15,6 15,15 15,29l-26 0zm117 91c0,-26 -23,-50 -29,-64 -3,-15 26,-38 6,-68 -18,-23 -138,-15 -168,-15l-3 147 77 -2 6 -53 11 0 21 55 79 0 0 0z"/>
  <path class="fil2" d="M2494 776c3,9 6,21 6,30l-27 6 6 -33 15 -3 0 0zm-124 94c153,3 32,-23 115,-23 76,0 -21,29 117,23l-55 -147 -115 -3 -62 150z"/>
  <path class="fil2" d="M3041 776c6,9 14,24 14,36l-26 0 12 -36zm-39 97c12,-32 3,-26 39,-26 47,0 26,0 35,23l79 0 -56 -147 -114 3 -62 144 79 3 0 0z"/>
  <path class="fil2" d="M1200 862c9,3 59,6 70,3 15,-6 21,-33 27,-47 6,-18 38,-92 38,-103l-76 0 -18 47 -21 -47 -76 3 56 144 0 0z"/>
  <path class="fil2" d="M1814 773c-8,0 -73,6 -44,-17 12,-9 47,0 65,-3l0 -35 -147 0 0 150 147 0 -3 -36 -68 -6c3,-29 21,-11 50,-17l0 -36 0 0z"/>
  <path class="fil2" d="M1429 812c12,-6 32,-3 47,-3l0 -36 -35 3c-15,-3 -6,0 -9,-6l0 -17 71 0 -3 -35 -144 0 -3 147 150 0 0 -36 -71 0 -3 -17 0 0z"/>
  <polygon class="fil3" points="541,200 691,329 694,329 673,91 664,85 "/>
  <path class="fil2" d="M1629 776c9,-6 24,0 35,-3l0 -55 -129 0 -21 2 -3 56 42 3 -3 89 76 -3 3 -89 0 0z"/>
  <polygon class="fil2" points="1870,312 1773,332 1773,476 1873,476 "/>
  <path class="fil2" d="M1773 153c-6,0 -9,0 -9,3 0,0 0,0 3,0 0,3 0,3 0,3 53,32 33,56 33,109 79,-30 11,-45 105,-3 -2,-53 -20,-59 27,-109 -12,-6 -32,-3 -50,-21 -12,-11 -21,-32 -29,-47 -33,38 14,50 -80,65l0 0z"/>
  <polygon class="fil3" points="53,323 185,197 188,197 79,100 73,103 "/>
  <path class="fil2" d="M2994 379c32,-14 61,-38 82,-67 21,-30 3,-94 -38,-100 -47,-9 -77,38 -59,79 6,21 26,30 35,41 9,15 -17,30 -20,47l0 0z"/>
  <polygon class="fil2" points="2070,870 2144,868 2147,718 2067,720 "/>
  <polygon class="fil2" points="2905,723 2829,723 2829,870 2905,870 "/>
  <path class="fil3" d="M365 791c-18,21 -21,24 -45,38 -14,9 -44,18 -53,27 27,14 165,20 186,9 0,-24 -12,-9 -50,-36 -15,-11 -27,-29 -38,-38z"/>
  <path class="fil1" d="M3943 521c0,32 77,58 80,5 3,-23 -21,-47 -41,-47 -18,3 -41,21 -39,42z"/>
  <path class="fil1" d="M3758 503c-38,35 18,85 59,47 35,-35 -9,-88 -59,-47z"/>
  <path class="fil3" d="M191 523l0 3c21,18 26,42 68,42 26,0 56,-27 67,-45 -26,-17 -35,-35 -64,-35 -27,0 -53,9 -71,35z"/>
  <path class="fil3" d="M538 526c-79,-41 -59,-38 -132,-3 3,6 47,48 64,45 12,0 36,-3 44,-12l24 -30z"/>
  <polygon class="fil0" points="2402,332 2438,321 2444,273 2402,268 "/>
  <path class="fil0" d="M1617 379c27,-6 18,-32 18,-58 -35,0 -50,41 -18,58z"/>
  <path class="fil4" d="M2652 356c21,3 53,-9 53,-33l-53 0 0 33z"/>
  <path class="fil0" d="M1373 441c6,-9 9,-29 9,-41 -9,-3 -29,-3 -38,3 -3,23 12,26 29,38z"/>
  <path class="fil5" d="M1629 776l38 3c3,-14 3,-47 0,-61 -11,-3 -123,-3 -132,0l129 0 0 55c-11,3 -26,-3 -35,3z"/>
  <path class="fil6" d="M2694 779l26 0c0,-14 0,-23 -15,-29 -14,6 -11,15 -11,29z"/>
  <path class="fil6" d="M2479 779l-6 33 27 -6c0,-9 -3,-21 -6,-30l-15 3 0 0z"/>
  <path class="fil0" d="M1938 779c15,0 20,-11 20,-29l-23 -3 3 32 0 0z"/>
  <path class="fil6" d="M3029 812l26 0c0,-12 -8,-27 -14,-36l-12 36z"/>
  <path class="fil7" d="M1429 812l50 -3 0 -39c-18,-2 -29,3 -47,0 3,6 -6,3 9,6l35 -3 0 36c-15,0 -35,-3 -47,3l0 0z"/>
  <path class="fil8" d="M2949 297l3 -26 -44 0 0 -53c-11,-6 0,0 -6,0 6,17 0,35 3,53 15,5 30,2 44,2l0 24 0 0z"/>
  <path class="fil9" d="M2220 870l-38 -2 3 -53c-6,8 -6,44 -3,55l38 0 0 0z"/>
  <path class="fil10" d="M365 571c8,2 20,2 32,2l-3 -8 -3 6 -26 0 0 0z"/>
  <polygon class="fil10" points="191,526 191,523 185,521 "/>
  <polygon class="fil11" points="538,526 544,526 541,523 "/>
  <ellipse class="fil12 str0" cx="254" cy="536" rx="10" ry="37"/>
  <path class="fil1" d="M365 791c11,9 23,27 38,38 38,27 50,12 50,36 -21,11 -159,5 -186,-9 9,-9 39,-18 53,-27 24,-14 27,-17 45,-38zm173 -265l3 -3 3 3 -6 0 0 0zm0 0l-24 30c-8,9 -32,12 -44,12 -17,3 -61,-39 -64,-45 73,-5 64,-8 132,3zm-347 -3c65,-14 56,-11 135,0 -11,18 -41,45 -67,45 -42,0 -47,-24 -68,-42l-6 -5 6 2 0 0zm-109 162l-9 3c-20,-132 -47,-226 42,-347 70,-94 191,-147 305,-123 112,20 197,94 239,197 3,-18 58,256 8,256 -5,0 -5,-9 -23,-12l-38 -9c-24,32 -21,185 -139,153 -79,-21 -97,-127 -61,-191 50,-12 106,0 141,-44 35,-45 29,-92 -3,-133 -30,-44 -100,-44 -132,-9 -53,59 -27,74 -18,139l3 8c-12,0 -24,0 -32,-2l-30 -3c6,-56 41,-65 -6,-130 -29,-38 -79,-50 -123,-23 -83,53 -53,173 56,188 58,9 85,12 82,88 -3,41 -27,85 -65,103 -126,65 -123,-118 -153,-144l-44 35 0 0zm-9 -582l6 -3 109 97 -3 0 -132 126 20 -220 0 0zm591 -18l9 6 21 238 -3 0 -150 -129 123 -115 0 0zm-611 -73c-21,114 -35,179 -41,297 -30,262 -33,600 361,606 189,5 309,-115 356,-300 18,-83 3,-212 3,-309 0,-115 -20,-197 -35,-306 -38,15 -109,88 -138,121 -92,100 -56,35 -177,35 -41,0 -76,0 -117,12 -48,17 -39,8 -77,-30 -23,-23 -112,-117 -135,-126l0 0z"/>
  <path class="fil3 str1" d="M3964 829c3,41 -32,77 -73,77 -42,3 -77,-30 -80,-74 0,-41 32,-38 74,-41 41,0 79,-6 79,38z"/>
  <ellipse class="fil12 str0" cx="481" cy="536" rx="10" ry="37"/>
 </g>
</svg>
