<?xml version="1.0" encoding="UTF-8"?>
<!DOCTYPE svg PUBLIC "-//W3C//DTD SVG 1.1//EN" "http://www.w3.org/Graphics/SVG/1.1/DTD/svg11.dtd">
<!-- Creator: CorelDRAW X8 -->
<svg xmlns="http://www.w3.org/2000/svg" xml:space="preserve" width="152.071mm" height="46.4139mm" version="1.1" style="shape-rendering:geometricPrecision; text-rendering:geometricPrecision; image-rendering:optimizeQuality; fill-rule:evenodd; clip-rule:evenodd"
viewBox="0 0 15433 4710"
 xmlns:xlink="http://www.w3.org/1999/xlink">
 <defs>
  <style type="text/css">
   <![CDATA[
    .str1 {stroke:#3D4770;stroke-width:25.3719}
    .str0 {stroke:#373435;stroke-width:20.2975}
    .fil13 {fill:#FEFEFE}
    .fil0 {fill:#373435}
    .fil3 {fill:#3D4770}
    .fil2 {fill:#4B6D71}
    .fil7 {fill:#4C6E71}
    .fil5 {fill:#4D6E72}
    .fil6 {fill:#789F86}
    .fil9 {fill:#7CA588}
    .fil10 {fill:#87AE8C}
    .fil8 {fill:#89B28D}
    .fil11 {fill:#989EB3}
    .fil4 {fill:#C0EEA7}
    .fil12 {fill:#EFF0F3}
    .fil1 {fill:#FEFEFE}
   ]]>
  </style>
 </defs>
 <g id="Capa_x0020_1">
  <metadata id="CorelCorpID_0Corel-Layer"/>
  <rect class="fil0 str0" x="10" y="10" width="15413" height="4690"/>
  <g id="_2031875062688">
   <g>
    <path class="fil1" d="M12413 2570c261,-126 530,327 186,444 -330,113 -479,-303 -186,-444zm-100 21c-288,284 286,-283 0,0zm576 -77c-24,414 23,-409 0,0zm-1245 608c-8,-132 -47,-234 29,-356 46,-75 150,-179 153,-267 2,-94 -91,-265 -38,-339 97,-134 183,4 206,111 98,439 -86,377 -191,625 -88,205 126,492 329,443 108,-26 197,-73 286,-137 156,-114 71,-139 219,0 107,101 173,105 318,90 68,-8 270,-49 292,-122 31,-102 -122,-105 -145,-262 -18,-122 -34,-251 -38,-374 -7,-190 82,-783 152,-230 24,190 -33,623 145,698 179,74 194,-49 213,-181 81,-554 -119,-1181 -724,-1337 -654,-169 -1391,331 -1429,1032 -8,155 76,531 223,606z"/>
    <path class="fil2" d="M6915 2376l-274 1 -3 -401 271 -54 6 454zm-382 -582c-2,180 33,499 -48,656 -71,138 -434,69 -559,21l-11 -246c72,19 325,166 359,-2 -89,-16 -211,40 -296,-45 -61,-62 -64,-197 -30,-274 75,-171 428,-113 585,-110zm740 336l249 -2 -14 234c-326,103 -532,-40 -491,-385 145,-51 119,-85 194,-188l306 21 3 248c-98,4 -264,-84 -247,72zm-2654 242l-305 -2 2 -740 299 2 117 167 117 -168 303 -1 1 744 -309 -6 2 -351 -110 124 -111 -127 -6 358zm672 -363l1 -175c120,-57 366,-79 473,16 98,87 66,395 59,523 -116,19 -469,11 -545,-64 -31,-283 111,-217 298,-259 -44,-107 -227,-39 -286,-41zm1348 -532c261,-36 129,-72 220,-174 25,40 50,95 82,127 48,49 112,38 142,62 -131,131 -80,147 -70,300 -265,-118 -78,-72 -297,2 0,-146 54,-205 -88,-297l-12 -12 23 -8zm-157 145c-266,0 -332,-13 -591,55 -18,5 -177,-52 -246,-60 -67,-7 -279,8 -309,1l-19 -101c-89,-77 -308,-85 -418,-68 -63,9 -140,41 -199,23 -64,-20 -153,-32 -220,-31 -405,8 -352,58 -352,654 0,119 -41,374 74,424 138,59 288,58 433,32 178,-32 247,27 429,16 62,-4 165,-35 213,-31 71,5 138,30 225,32 71,2 174,-17 235,-4 56,12 107,60 167,84 158,62 267,52 432,48 238,-6 212,-132 369,-129 380,8 286,-85 421,-34 105,39 335,50 439,9 173,-69 137,-210 137,-370 0,-461 59,-558 -447,-558 7,-157 95,-220 -121,-309 -146,-60 -116,-201 -291,-190 -70,5 -107,40 -145,97 -72,108 -44,47 -142,98 -182,95 -106,186 -74,312z"/>
    <path class="fil2" d="M7462 3052l215 -2 -3 415 -210 3 -2 -416zm2592 424l-216 -5 170 -403 314 -4 160 410 -227 0c-23,-71 40,-69 -96,-68 -99,0 -74,-12 -105,70zm-1752 -5l171 -415 312 5 156 409c-380,19 -114,-66 -319,-66 -233,1 101,77 -320,67zm1480 4l-206 -7 -1 -401 212 -3 -5 411zm-3803 -425c23,-12 335,-14 370,-6 10,42 11,133 -5,172l-104 -1 -4 242 -211 5 4 -247 -111 -7 3 -156 58 -2zm3541 418l-218 4 -57 -159 -35 6 -11 148 -211 3 4 -409c86,3 419,-25 467,44 59,85 -24,144 -13,188 9,36 77,107 74,175zm-2114 -2l-207 0c-38,-58 -7,-138 -110,-159l7 152 -216 9 -2 -418c104,-9 400,-30 463,51 72,94 -15,104 -5,177 6,46 70,111 70,188zm-648 -260l-4 98c-80,15 -125,-36 -136,46l188 12 7 99 -408 2 1 -418 405 3 4 100c-52,6 -146,-19 -184,8 -80,59 97,45 127,50zm-1066 -14c51,14 85,-6 134,6l2 106 -139 3 4 50 195 1 1 100 -415 -2 5 -410 401 -2 12 99 -199 2 -1 47zm2191 279l-110 -1c-8,-34 -4,-126 8,-153l-3 -267c238,-7 128,20 265,136l-15 -131 230 3 -5 409c-245,19 -132,-15 -266,-118l0 119 -104 3zm-2833 -20l-158 -405 212 -5 56 126 50 -125 211 -1c1,35 -87,237 -106,285 -16,41 -30,117 -71,128 -28,7 -166,4 -194,-3zm-175 -515c-166,15 -106,144 -68,242 30,75 87,246 122,306 59,100 235,93 335,74 157,-30 205,8 367,6 552,-3 1098,9 1650,9 281,0 562,-6 843,8 107,5 315,8 417,-12 107,-22 244,12 373,12 281,0 562,-5 842,9 156,7 272,-26 396,-28 114,-1 243,63 379,13 148,-54 58,-164 25,-261 -136,-391 -106,-364 -492,-362 -65,0 -126,34 -168,31 -59,-4 -86,-32 -174,-31 -146,1 -238,23 -388,3 -104,-14 -300,-10 -402,12 -29,6 -296,-21 -363,-22 -85,-2 -116,20 -186,25 -51,5 -112,-24 -173,-26 -254,-9 -581,-6 -832,17 -95,9 -263,-24 -383,-19 -145,6 -275,-7 -419,-5 -282,3 -567,0 -850,0 -248,0 -619,-23 -851,-1z"/>
    <path class="fil2" d="M9404 2199c-41,351 -818,199 -552,-277 83,-150 328,-169 444,-46 44,46 108,195 80,241 -27,42 -224,-3 -280,36 51,115 223,51 308,46zm-1316 -555c181,5 582,-58 664,140 43,103 15,240 -62,311 -106,98 -207,14 -311,1l9 288 -302 -2 2 -738zm1692 19c13,-5 -18,-23 17,0l-4 144 126 1 -10 69 -4 93 -128 4 18 186 111 -9 -1 206c-105,46 -246,38 -341,-27 -93,-63 -49,-263 -53,-361l-94 -7 363 -299zm780 613c9,-136 -33,-84 -147,-160 -91,-60 -115,-97 -70,-216 54,-142 370,-107 486,-57l-60 132c-79,-4 -122,-84 -196,1 47,44 167,64 220,96 59,36 54,195 14,250 -78,108 -405,77 -506,22l50 -149 209 81zm-533 -168c15,-48 83,-93 61,-130 -22,-35 -81,-60 -101,-114 -45,-117 38,-242 169,-221 109,18 162,195 103,276 -61,84 -135,148 -232,189zm-1437 203c128,24 173,187 335,237 147,45 341,40 474,-46 77,-50 91,7 182,43 132,51 337,42 446,-67 87,-86 51,-142 68,-198 107,166 -69,171 242,265 265,80 637,38 679,-273 15,-111 -3,-126 -29,-224 -20,-75 21,-134 14,-216 -15,-167 -169,-194 -312,-206 -70,-7 -201,7 -252,-6 -64,-17 -72,-80 -141,-117 -210,-113 -297,25 -410,-16 -169,-61 -218,14 -344,119 -226,188 -98,74 -311,26 -199,-45 -264,59 -414,-68 -139,-118 -746,-158 -864,-43 -72,70 -76,855 -32,956 54,122 306,91 419,84 350,-21 169,-137 250,-250z"/>
    <path class="fil1" d="M1925 2966c14,-6 11,-2 23,-10l115 -83c81,79 80,563 431,390 103,-50 171,-177 177,-291 12,-214 -66,-222 -226,-242 -301,-38 -381,-374 -153,-520 118,-74 263,-45 342,64 127,174 31,204 15,361l84 2 75 3 3 -17c-23,-179 -97,-219 54,-382 90,-97 285,-96 366,20 86,121 101,250 5,369 -98,121 -250,94 -387,121 -105,184 -52,475 167,534 326,87 324,-336 382,-423l100 25c44,12 -119,140 -50,285 187,-352 349,-446 102,-964 -115,-287 -355,-491 -661,-550 -318,-61 -657,86 -850,342 -250,334 -176,599 -114,966z"/>
    <path class="fil3" d="M11644 3122c-147,-75 -231,-451 -223,-606 38,-701 775,-1201 1429,-1032 605,156 805,783 724,1337 -19,132 -34,255 -213,181 -178,-75 -121,-508 -145,-698 -70,-553 -159,40 -152,230 4,123 20,252 38,374 23,157 176,160 145,262 -22,73 -224,114 -292,122 -145,15 -211,11 -318,-90 -148,-139 -63,-114 -219,0 -89,64 -178,111 -286,137 -203,49 -417,-238 -329,-443 105,-248 289,-186 191,-625 -23,-107 -109,-245 -206,-111 -53,74 40,245 38,339 -3,88 -107,192 -153,267 -76,122 -37,224 -29,356zm784 -1792c-672,64 -1167,533 -1156,1228 2,170 2,343 146,444 130,92 93,199 315,287 70,27 133,77 194,98 89,31 199,-9 276,25 93,40 149,271 361,240 151,-21 143,-228 344,-252 238,-29 248,-18 423,-178 85,-77 291,-175 344,-249 49,-69 42,-452 33,-551 -63,-707 -562,-1159 -1280,-1092z"/>
    <polygon class="fil4" points="4625,2014 4736,2141 4846,2017 4844,2368 5153,2374 5152,1630 4849,1631 4732,1799 4615,1632 4316,1630 4314,2370 4619,2372 "/>
    <path class="fil4" d="M6207 2111c-85,-52 -50,-166 50,-162 1,67 23,144 -50,162zm326 -317c-157,-3 -510,-61 -585,110 -34,77 -31,212 30,274 85,85 207,29 296,45 -34,168 -287,21 -359,2l11 246c125,48 488,117 559,-21 81,-157 46,-476 48,-656z"/>
    <path class="fil4" d="M8387 1802l113 11 -11 133 -99 28 -3 -172zm-301 580l302 2 -9 -288c104,13 205,97 311,-1 77,-71 105,-208 62,-311 -82,-198 -483,-135 -664,-140l-2 738z"/>
    <path class="fil4" d="M5528 2282c-47,-33 -90,-42 -80,-111 30,-13 80,-13 112,-6 -4,35 -13,90 -32,117zm-237 -273c59,2 242,-66 286,41 -187,42 -329,-24 -298,259 76,75 429,83 545,64 7,-128 39,-436 -59,-523 -107,-95 -353,-73 -473,-16l-1 175z"/>
    <path class="fil4" d="M9082 1954l147 -1c-2,64 -93,95 -149,87l2 -86zm322 245c-85,5 -257,69 -308,-46 56,-39 253,6 280,-36 28,-46 -36,-195 -80,-241 -116,-123 -361,-104 -444,46 -266,476 511,628 552,277z"/>
    <path class="fil4" d="M7273 2130c-17,-156 149,-68 247,-72l-3 -248 -306 -21c-75,103 -49,137 -194,188 -41,345 165,488 491,385l14 -234 -249 2z"/>
    <path class="fil4" d="M10560 2276l-209 -81 -50 149c101,55 428,86 506,-22 40,-55 45,-214 -14,-250 -53,-32 -173,-52 -220,-96 74,-85 117,-5 196,-1l60 -132c-116,-50 -432,-85 -486,57 -45,119 -21,156 70,216 114,76 156,24 147,160z"/>
    <path class="fil4" d="M9909 1877l1 -64c-41,-2 -87,7 -126,-4 -3,-50 8,-99 -4,-146l-363 299 94 7c4,98 -40,298 53,361 95,65 236,73 341,27l1 -206 -111 9 -18 -186 128 -4 4 -93z"/>
    <path class="fil3" d="M12413 2570c-293,141 -144,557 186,444 344,-117 75,-570 -186,-444z"/>
    <path class="fil4" d="M7095 3221l-4 -92 62 11c2,47 -10,81 -58,81zm311 245c0,-77 -64,-142 -70,-188 -10,-73 77,-83 5,-177 -63,-81 -359,-60 -463,-51l2 418 216 -9 -7 -152c103,21 72,101 110,159l207 0z"/>
    <path class="fil4" d="M7781 3317l-4 144 106 10 104 -3 0 -119c134,103 21,137 266,118l5 -409 -230 -3 15 131c-137,-116 -27,-143 -265,-136l3 267z"/>
    <path class="fil4" d="M9199 3222c-1,-45 -8,-67 33,-86 41,15 42,44 40,86l-73 0zm321 246c3,-68 -65,-139 -74,-175 -11,-44 72,-103 13,-188 -48,-69 -381,-41 -467,-44l-4 409 211 -3 11 -148 35 -6 57 159 218 -4z"/>
    <path class="fil4" d="M8638 3214c12,23 19,55 16,82l-70 12 21 -89 33 -5zm-336 257c421,10 87,-66 320,-67 205,0 -61,85 319,66l-156 -409 -312 -5 -171 415z"/>
    <path class="fil4" d="M10163 3208c16,28 35,67 40,101l-79 -3 39 -98zm-109 268c31,-82 6,-70 105,-70 136,-1 73,-3 96,68l227 0 -160 -410 -314 4 -170 403 216 5z"/>
    <path class="fil4" d="M5050 3451c28,7 166,10 194,3 41,-11 55,-87 71,-128 19,-48 107,-250 106,-285l-211 1 -50 125 -56 -126 -212 5 158 405z"/>
    <path class="fil4" d="M6758 3206c-30,-5 -207,9 -127,-50 38,-27 132,-2 184,-8l-4 -100 -405 -3 -1 418 408 -2 -7 -99 -188 -12c11,-82 56,-31 136,-46l4 -98z"/>
    <path class="fil4" d="M5689 3307c32,-17 90,-5 130,-8l1 -97 -103 5c-36,-6 -11,5 -25,-15l1 -47 199 -2 -12 -99 -401 2 -5 410 415 2 -1 -100 -195 -1 -4 -50z"/>
    <polygon class="fil1" points="3224,1606 3636,1967 3645,1972 3585,1306 3565,1296 "/>
    <path class="fil4" d="M6240 3215c28,-17 64,-4 104,-9l-1 -157 -364 1 -58 2 -3 156 111 7 -4 247 211 -5 4 -242z"/>
    <polygon class="fil4" points="6909,1922 6638,1976 6641,2377 6915,2376 "/>
    <path class="fil4" d="M6639 1477c-17,6 -22,7 -23,7 0,1 2,2 6,6 1,2 3,4 6,7 142,92 88,151 88,297 219,-74 32,-120 297,-2 -10,-153 -61,-169 70,-300 -30,-24 -94,-13 -142,-62 -32,-32 -57,-87 -82,-127 -91,102 41,138 -220,174z"/>
    <polygon class="fil1" points="1864,1950 2229,1606 2243,1606 1941,1332 1922,1341 "/>
    <path class="fil4" d="M10027 2108c97,-41 171,-105 232,-189 59,-81 6,-258 -103,-276 -131,-21 -214,104 -169,221 20,54 79,79 101,114 22,37 -46,82 -61,130z"/>
    <polygon class="fil4" points="7464,3468 7674,3465 7677,3050 7462,3052 "/>
    <polygon class="fil4" points="9787,3064 9575,3067 9576,3468 9782,3475 "/>
    <path class="fil1" d="M2730 3250c-51,55 -53,67 -122,110 -40,25 -125,49 -145,73 70,37 452,54 516,20 -3,-63 -33,-18 -139,-96 -45,-32 -79,-84 -110,-107z"/>
    <path class="fil3" d="M12665 2500c-1,94 215,166 224,14 3,-63 -56,-129 -117,-126 -50,2 -112,53 -107,112z"/>
    <path class="fil3" d="M12149 2450c-103,96 52,242 164,130 100,-98 -25,-247 -164,-130z"/>
    <path class="fil1" d="M2251 2509l-5 10c64,45 77,112 189,110 72,-2 154,-69 187,-120 -70,-51 -97,-98 -177,-100 -74,0 -149,25 -194,100z"/>
    <path class="fil1" d="M3216 2516c-221,-117 -168,-102 -370,-7 8,15 133,128 178,124 34,-3 96,-14 120,-34l72 -83z"/>
    <polygon class="fil2" points="8390,1974 8489,1946 8500,1813 8387,1802 "/>
    <path class="fil2" d="M6207 2111c73,-18 51,-95 50,-162 -100,-4 -135,110 -50,162z"/>
    <path class="fil5" d="M9080 2040c56,8 147,-23 149,-87l-147 1 -2 86z"/>
    <path class="fil2" d="M5528 2282c19,-27 28,-82 32,-117 -32,-7 -82,-7 -112,6 -10,69 33,78 80,111z"/>
    <path class="fil6" d="M6240 3215l104 1c16,-39 15,-130 5,-172 -35,-8 -347,-6 -370,6l364 -1 1 157c-40,5 -76,-8 -104,9z"/>
    <path class="fil7" d="M9199 3222l73 0c2,-42 1,-71 -40,-86 -41,19 -34,41 -33,86z"/>
    <path class="fil7" d="M8605 3219l-21 89 70 -12c3,-27 -4,-59 -16,-82l-33 5z"/>
    <path class="fil2" d="M7095 3221c48,0 60,-34 58,-81l-62 -11 4 92z"/>
    <path class="fil7" d="M10124 3306l79 3c-5,-34 -24,-73 -40,-101l-39 98z"/>
    <path class="fil8" d="M5689 3307l139 -3 -2 -106c-49,-12 -83,8 -134,-6 14,20 -11,9 25,15l103 -5 -1 97c-40,3 -98,-9 -130,8z"/>
    <path class="fil9" d="M9909 1877l10 -69 -126 -1 4 -144c-35,-23 -4,-5 -17,0 12,47 1,96 4,146 39,11 85,2 126,4l-1 64z"/>
    <path class="fil10" d="M7883 3471l-106 -10 4 -144c-12,27 -16,119 -8,153l110 1z"/>
    <path class="fil11" d="M2733 2637c26,11 58,11 88,8l-10 -22 -3 17 -75 -3z"/>
    <polygon class="fil11" points="2246,2519 2251,2509 2231,2498 "/>
    <polygon class="fil12" points="3216,2516 3227,2516 3218,2506 "/>
    <path class="fil3" d="M2730 3250c31,23 65,75 110,107 106,78 136,33 139,96 -64,34 -446,17 -516,-20 20,-24 105,-48 145,-73 69,-43 71,-55 122,-110zm486 -734l2 -10 9 10 -11 0zm0 0l-72 83c-24,20 -86,31 -120,34 -45,4 -170,-109 -178,-124 207,-17 180,-27 370,7zm-965 -7c179,-43 156,-35 371,0 -33,51 -115,118 -187,120 -112,2 -125,-65 -189,-110l-15 -21 20 11zm-303 447l-23 10c-62,-367 -136,-632 114,-966 193,-256 532,-403 850,-342 306,59 546,263 661,550 5,-49 163,712 24,709 -15,0 -22,-24 -68,-29l-109 -28c-59,86 -55,512 -381,425 -219,-59 -272,-350 -167,-534 137,-27 289,0 387,-121 96,-119 81,-248 -5,-369 -81,-116 -276,-117 -366,-20 -151,163 -77,203 -54,382l10 22c-30,3 -62,3 -88,-8l-84 -2c16,-157 112,-187 -15,-361 -79,-109 -224,-138 -342,-64 -228,146 -148,482 153,520 160,20 238,28 226,242 -6,114 -74,241 -177,291 -351,173 -346,-326 -427,-405l-119 98zm-26 -1615l19 -9 302 274 -14 0 -365 344 58 -609zm1643 -45l20 10 60 666 -9 -5 -412 -361 341 -310zm-1697 -206c-63,312 -101,493 -118,819 -80,729 -88,1669 1009,1684 522,21 850,-316 981,-829 51,-235 9,-593 10,-859 1,-317 -53,-546 -95,-850 -106,41 -303,249 -385,338 -255,276 -157,92 -491,92 -116,0 -212,2 -324,37 -135,44 -105,20 -211,-86 -65,-65 -313,-321 -376,-346z"/>
   </g>
   <path class="fil13 str1" d="M12726 3355c4,117 -88,215 -205,219 -117,3 -215,-89 -219,-206 -4,-117 85,-111 202,-115 117,-3 219,-15 222,102z"/>
  </g>
 </g>
</svg>
