<?xml version="1.0" encoding="UTF-8"?>
<!DOCTYPE svg PUBLIC "-//W3C//DTD SVG 1.1//EN" "http://www.w3.org/Graphics/SVG/1.1/DTD/svg11.dtd">
<!-- Creator: CorelDRAW X8 -->
<svg xmlns="http://www.w3.org/2000/svg" xml:space="preserve" width="4370px" height="4391px" version="1.1" style="shape-rendering:geometricPrecision; text-rendering:geometricPrecision; image-rendering:optimizeQuality; fill-rule:evenodd; clip-rule:evenodd"
viewBox="0 0 1143 1148"
 xmlns:xlink="http://www.w3.org/1999/xlink">
 <defs>
  <style type="text/css">
   <![CDATA[
    .fil0 {fill:#FEFEFE}
   ]]>
  </style>
 </defs>
 <g id="Capa_x0020_1">
  <metadata id="CorelCorpID_0Corel-Layer"/>
  <g id="_2797533370144">
   <path class="fil0" d="M737 774c9,5 19,2 27,-3 8,-27 -40,-25 -27,3z"/>
   <path class="fil0" d="M851 774c9,5 19,2 27,-3 8,-27 -40,-25 -27,3z"/>
   <path class="fil0" d="M51 1119c9,4 19,2 27,-3 8,-28 -40,-25 -27,3z"/>
   <path class="fil0" d="M51 774c9,5 19,2 27,-3 8,-28 -40,-25 -27,3z"/>
   <path class="fil0" d="M51 889c9,5 19,2 27,-3 8,-28 -40,-25 -27,3z"/>
   <path class="fil0" d="M51 1004c9,5 19,2 27,-3 8,-28 -40,-25 -27,3z"/>
   <path class="fil0" d="M51 659c9,5 19,2 27,-2 8,-29 -40,-25 -27,2z"/>
   <path class="fil0" d="M280 544c9,5 19,3 27,-2 7,-28 -40,-25 -27,2z"/>
   <path class="fil0" d="M165 889c10,5 19,2 27,-3 8,-28 -39,-25 -27,3z"/>
   <path class="fil0" d="M165 659c10,5 19,3 27,-2 8,-29 -39,-25 -27,2z"/>
   <path class="fil0" d="M165 1119c10,4 19,2 27,-3 8,-28 -39,-25 -27,3z"/>
   <path class="fil0" d="M165 1004c10,5 19,2 27,-3 8,-28 -39,-25 -27,3z"/>
   <path class="fil0" d="M165 774c10,5 19,2 27,-3 8,-28 -39,-25 -27,3z"/>
   <path class="fil0" d="M508 544c10,5 19,3 27,-2 8,-29 -39,-25 -27,2z"/>
   <path class="fil0" d="M394 544c9,5 19,3 27,-2 7,-29 -40,-25 -27,2z"/>
   <path class="fil0" d="M1080 1004c9,5 19,2 27,-3 7,-28 -40,-25 -27,3z"/>
   <path class="fil0" d="M1080 889c9,5 19,2 27,-3 7,-28 -40,-25 -27,3z"/>
   <path class="fil0" d="M966 774c9,5 18,2 26,-3 8,-28 -39,-25 -26,3z"/>
   <path class="fil0" d="M1080 774c9,5 19,2 27,-3 7,-28 -40,-25 -27,3z"/>
   <path class="fil0" d="M966 1119c9,4 18,2 26,-3 8,-28 -39,-25 -26,3z"/>
   <path class="fil0" d="M851 889c9,5 19,2 27,-3 8,-28 -39,-25 -27,3z"/>
   <path class="fil0" d="M966 889c9,5 18,2 26,-3 8,-28 -39,-25 -26,3z"/>
   <path class="fil0" d="M851 1119c9,4 19,2 27,-3 8,-28 -39,-25 -27,3z"/>
   <path class="fil0" d="M737 889c9,5 19,2 27,-3 7,-28 -40,-25 -27,3z"/>
   <path class="fil0" d="M1080 1119c9,4 19,2 27,-3 7,-28 -40,-25 -27,3z"/>
   <path class="fil0" d="M623 659c9,5 18,3 26,-2 8,-29 -39,-25 -26,2z"/>
   <path class="fil0" d="M1080 659c9,5 19,3 27,-2 7,-29 -40,-25 -27,2z"/>
   <path class="fil0" d="M966 659c9,5 18,3 26,-2 8,-29 -39,-25 -26,2z"/>
   <path class="fil0" d="M966 1004c9,5 18,2 26,-3 8,-28 -39,-25 -26,3z"/>
   <path class="fil0" d="M623 1119c9,4 18,2 26,-3 8,-28 -39,-25 -26,3z"/>
   <path class="fil0" d="M623 1004c9,5 18,2 26,-3 8,-28 -39,-25 -26,3z"/>
   <path class="fil0" d="M737 1004c9,5 19,2 27,-3 7,-28 -40,-25 -27,3z"/>
   <path class="fil0" d="M851 1004c9,5 19,2 27,-3 8,-28 -39,-25 -27,3z"/>
   <path class="fil0" d="M623 889c9,5 18,2 26,-3 8,-28 -39,-25 -26,3z"/>
   <path class="fil0" d="M737 659c9,5 19,3 27,-2 7,-29 -40,-25 -27,2z"/>
   <path class="fil0" d="M737 1119c9,4 19,2 27,-3 7,-28 -40,-25 -27,3z"/>
   <path class="fil0" d="M623 774c9,5 18,2 26,-3 8,-28 -39,-25 -26,3z"/>
   <path class="fil0" d="M851 659c9,5 19,3 27,-2 8,-29 -39,-25 -27,2z"/>
   <path class="fil0" d="M51 544c9,5 19,3 27,-2 8,-29 -40,-25 -27,2z"/>
   <path class="fil0" d="M280 889c9,5 19,2 27,-3 7,-28 -40,-25 -27,3z"/>
   <path class="fil0" d="M280 1004c9,5 19,2 27,-3 7,-28 -40,-25 -27,3z"/>
   <path class="fil0" d="M280 774c9,5 19,2 27,-3 7,-28 -40,-25 -27,3z"/>
   <path class="fil0" d="M280 1119c9,4 19,2 27,-3 7,-28 -40,-25 -27,3z"/>
   <path class="fil0" d="M280 659c9,5 19,3 27,-2 7,-28 -40,-26 -27,2z"/>
   <path class="fil0" d="M508 659c10,5 19,3 27,-2 8,-28 -39,-26 -27,2z"/>
   <path class="fil0" d="M508 1004c10,5 19,2 27,-3 8,-28 -39,-25 -27,3z"/>
   <path class="fil0" d="M394 1004c9,5 19,2 27,-3 7,-28 -40,-25 -27,3z"/>
   <path class="fil0" d="M394 659c9,5 19,3 27,-2 7,-28 -40,-26 -27,2z"/>
   <path class="fil0" d="M508 889c10,5 19,2 27,-3 8,-28 -39,-25 -27,3z"/>
   <path class="fil0" d="M394 889c9,5 19,2 27,-3 7,-28 -40,-25 -27,3z"/>
   <path class="fil0" d="M394 774c9,5 19,2 27,-3 7,-28 -40,-25 -27,3z"/>
   <path class="fil0" d="M508 774c10,5 19,2 27,-3 8,-28 -39,-25 -27,3z"/>
   <path class="fil0" d="M508 1119c10,4 19,2 27,-3 8,-28 -39,-25 -27,3z"/>
   <path class="fil0" d="M394 1119c9,4 19,2 27,-3 7,-28 -40,-25 -27,3z"/>
   <path class="fil0" d="M223 832c9,5 19,2 27,-5 7,-26 -40,-23 -27,5z"/>
   <path class="fil0" d="M223 1061c9,5 19,2 27,-4 7,-26 -40,-24 -27,4z"/>
   <path class="fil0" d="M223 947c9,4 19,2 27,-5 7,-26 -40,-23 -27,5z"/>
   <path class="fil0" d="M223 717c9,5 19,2 27,-5 7,-26 -40,-23 -27,5z"/>
   <path class="fil0" d="M451 487c10,5 20,2 27,-4 7,-26 -40,-24 -27,4z"/>
   <path class="fil0" d="M337 487c9,5 19,2 27,-4 7,-26 -40,-24 -27,4z"/>
   <path class="fil0" d="M451 602c10,5 20,2 27,-4 7,-27 -39,-24 -27,4z"/>
   <path class="fil0" d="M337 602c9,5 19,2 27,-4 6,-27 -40,-24 -27,4z"/>
   <path class="fil0" d="M108 717c10,5 20,2 27,-5 7,-26 -39,-23 -27,5z"/>
   <path class="fil0" d="M108 1061c10,5 20,2 27,-4 7,-27 -39,-23 -27,4z"/>
   <path class="fil0" d="M108 832c10,5 20,2 27,-5 7,-26 -39,-23 -27,5z"/>
   <path class="fil0" d="M108 947c10,4 20,2 27,-5 7,-27 -39,-23 -27,5z"/>
   <path class="fil0" d="M566 602c9,5 19,2 26,-4 7,-27 -39,-24 -26,4z"/>
   <path class="fil0" d="M565 487c10,5 20,2 27,-4 7,-27 -39,-24 -27,4z"/>
   <path class="fil0" d="M574 119c-8,7 -13,13 -9,24 25,12 43,-21 9,-24z"/>
   <path class="fil0" d="M460 119c-8,7 -14,13 -9,24 25,12 43,-21 9,-24z"/>
   <path class="fil0" d="M346 119c-8,7 -14,13 -9,24 25,12 43,-21 9,-24z"/>
   <path class="fil0" d="M223 602c9,5 19,2 27,-4 6,-27 -40,-24 -27,4z"/>
   <path class="fil0" d="M223 487c9,5 19,2 27,-4 5,-27 -40,-23 -27,4z"/>
   <path class="fil0" d="M165 544c10,5 20,3 27,-4 6,-27 -39,-23 -27,4z"/>
   <path class="fil0" d="M566 717c9,5 19,2 26,-5 6,-26 -39,-22 -26,5z"/>
   <path class="fil0" d="M566 946c9,5 19,3 26,-4 6,-27 -39,-23 -26,4z"/>
   <path class="fil0" d="M566 831c9,6 19,3 26,-4 6,-27 -39,-23 -26,4z"/>
   <path class="fil0" d="M566 1061c9,5 19,3 26,-4 6,-27 -39,-23 -26,4z"/>
   <path class="fil0" d="M337 1061c10,5 19,3 27,-4 6,-27 -39,-23 -27,4z"/>
   <path class="fil0" d="M451 1061c10,5 20,3 27,-4 6,-27 -39,-23 -27,4z"/>
   <path class="fil0" d="M451 831c10,6 20,3 27,-4 6,-27 -39,-23 -27,4z"/>
   <path class="fil0" d="M337 831c10,6 19,3 27,-4 6,-27 -39,-23 -27,4z"/>
   <path class="fil0" d="M451 946c10,5 20,3 27,-4 6,-27 -39,-23 -27,4z"/>
   <path class="fil0" d="M337 946c10,5 19,3 27,-4 6,-27 -39,-23 -27,4z"/>
   <path class="fil0" d="M337 717c10,5 19,2 27,-5 6,-26 -39,-22 -27,5z"/>
   <path class="fil0" d="M451 717c10,5 20,2 27,-5 6,-26 -39,-22 -27,5z"/>
   <path class="fil0" d="M174 61c-8,7 -13,13 -9,24 26,13 43,-21 9,-24z"/>
   <path class="fil0" d="M680 487c9,5 19,2 27,-4 5,-27 -40,-23 -27,4z"/>
   <path class="fil0" d="M1023 487c9,5 19,2 27,-4 5,-27 -40,-23 -27,4z"/>
   <path class="fil0" d="M908 487c10,5 20,2 27,-4 6,-27 -39,-23 -27,4z"/>
   <path class="fil0" d="M794 487c10,5 19,2 27,-4 6,-27 -39,-23 -27,4z"/>
   <path class="fil0" d="M908 602c10,5 20,2 27,-4 6,-27 -39,-23 -27,4z"/>
   <path class="fil0" d="M794 602c10,5 19,2 27,-4 6,-27 -39,-23 -27,4z"/>
   <path class="fil0" d="M680 602c9,5 19,2 27,-4 6,-27 -40,-23 -27,4z"/>
   <path class="fil0" d="M1023 602c9,5 19,2 27,-4 5,-27 -40,-23 -27,4z"/>
   <path class="fil0" d="M966 544c9,5 19,3 26,-4 6,-26 -39,-23 -26,4z"/>
   <path class="fil0" d="M1080 544c9,5 19,3 27,-4 5,-26 -40,-23 -27,4z"/>
   <path class="fil0" d="M623 544c9,5 19,3 27,-4 5,-26 -40,-23 -27,4z"/>
   <path class="fil0" d="M737 544c10,5 19,3 27,-4 6,-26 -39,-23 -27,4z"/>
   <path class="fil0" d="M851 544c10,5 20,3 27,-4 6,-26 -39,-23 -27,4z"/>
   <path class="fil0" d="M231 234c-8,7 -13,13 -8,23 9,6 22,3 28,-7 -2,-11 -9,-15 -20,-16z"/>
   <path class="fil0" d="M574 234c-8,7 -13,13 -9,23 11,6 22,3 29,-7 -2,-11 -9,-15 -20,-16z"/>
   <path class="fil0" d="M346 349c-8,6 -14,13 -9,23 10,6 22,2 28,-7 -1,-11 -9,-16 -19,-16z"/>
   <path class="fil0" d="M460 349c-8,6 -14,13 -9,23 10,6 22,2 28,-7 -1,-11 -9,-16 -19,-16z"/>
   <path class="fil0" d="M60 291c-8,7 -14,13 -9,24 10,5 22,2 28,-8 -1,-11 -9,-15 -19,-16z"/>
   <path class="fil0" d="M60 176c-8,7 -14,13 -9,24 10,5 22,2 28,-8 -1,-10 -9,-15 -19,-16z"/>
   <path class="fil0" d="M403 61c-8,7 -14,13 -9,24 10,5 22,2 28,-7 -1,-11 -9,-16 -19,-17z"/>
   <path class="fil0" d="M517 61c-8,7 -14,13 -9,24 10,5 22,2 28,-7 -1,-11 -9,-16 -19,-17z"/>
   <path class="fil0" d="M574 349c-8,6 -13,13 -9,23 11,5 23,3 28,-7 -1,-11 -8,-16 -19,-16z"/>
   <path class="fil0" d="M1088 176c-7,7 -13,13 -8,24 9,5 22,2 28,-7 -1,-11 -9,-16 -20,-17z"/>
   <path class="fil0" d="M631 176c-7,7 -13,13 -8,24 9,5 22,2 27,-7 -1,-11 -8,-16 -19,-17z"/>
   <path class="fil0" d="M108 602c10,5 20,2 27,-4 3,-13 -8,-20 -19,-19 -8,6 -12,13 -8,23z"/>
   <path class="fil0" d="M108 487c10,5 20,2 27,-4 3,-13 -8,-20 -19,-19 -8,6 -12,14 -8,23z"/>
   <path class="fil0" d="M680 1061c9,5 19,2 27,-4 2,-13 -8,-20 -19,-19 -8,6 -13,14 -8,23z"/>
   <path class="fil0" d="M908 1061c10,5 20,2 27,-4 3,-13 -8,-20 -19,-19 -8,6 -12,14 -8,23z"/>
   <path class="fil0" d="M1023 1061c9,5 19,2 27,-4 2,-13 -8,-20 -20,-19 -7,6 -12,14 -7,23z"/>
   <path class="fil0" d="M794 1061c10,5 20,2 27,-4 3,-13 -8,-20 -19,-19 -8,6 -12,14 -8,23z"/>
   <path class="fil0" d="M794 832c10,5 20,2 27,-5 3,-12 -8,-19 -19,-18 -8,6 -12,13 -8,23z"/>
   <path class="fil0" d="M908 717c10,5 20,2 27,-5 3,-12 -8,-19 -19,-18 -8,6 -12,13 -8,23z"/>
   <path class="fil0" d="M1023 947c9,4 19,2 27,-5 2,-12 -8,-19 -20,-18 -7,5 -12,13 -7,23z"/>
   <path class="fil0" d="M794 947c10,4 20,2 27,-5 3,-12 -8,-19 -19,-18 -8,5 -12,13 -8,23z"/>
   <path class="fil0" d="M908 947c10,4 20,2 27,-5 3,-12 -8,-19 -19,-18 -8,5 -12,13 -8,23z"/>
   <path class="fil0" d="M794 717c10,5 20,2 27,-5 3,-12 -8,-19 -19,-18 -8,6 -12,13 -8,23z"/>
   <path class="fil0" d="M680 947c9,4 19,2 27,-5 2,-12 -8,-19 -19,-18 -8,5 -13,13 -8,23z"/>
   <path class="fil0" d="M680 717c9,5 19,2 27,-5 2,-12 -8,-19 -19,-18 -8,6 -13,13 -8,23z"/>
   <path class="fil0" d="M1023 717c9,5 19,2 27,-5 2,-12 -8,-19 -20,-18 -7,6 -12,13 -7,23z"/>
   <path class="fil0" d="M680 832c9,5 19,2 27,-5 2,-12 -8,-19 -19,-18 -8,6 -13,13 -8,23z"/>
   <path class="fil0" d="M1023 832c9,5 19,2 27,-5 2,-12 -8,-19 -20,-18 -7,6 -12,13 -7,23z"/>
   <path class="fil0" d="M908 832c10,5 20,2 27,-5 3,-12 -8,-19 -19,-18 -8,6 -12,13 -8,23z"/>
   <path class="fil0" d="M288 176c-7,7 -13,13 -8,24 10,5 22,3 28,-8 -1,-10 -9,-15 -20,-16z"/>
   <path class="fil0" d="M631 61c-7,7 -13,13 -8,24 10,5 22,3 27,-7 -1,-11 -9,-16 -19,-17z"/>
   <path class="fil0" d="M860 61c-8,7 -14,13 -9,24 10,5 22,3 28,-7 -1,-11 -9,-16 -19,-17z"/>
   <path class="fil0" d="M974 61c-8,7 -13,13 -8,24 10,5 22,3 27,-7 -1,-11 -9,-16 -19,-17z"/>
   <path class="fil0" d="M1088 61c-7,7 -13,13 -8,24 10,5 22,3 28,-7 -1,-11 -9,-16 -20,-17z"/>
   <path class="fil0" d="M746 61c-8,7 -14,13 -9,24 10,5 22,3 28,-7 -1,-11 -9,-16 -19,-17z"/>
   <path class="fil0" d="M174 176c-8,7 -13,13 -9,24 10,5 22,3 28,-8 -1,-10 -9,-15 -19,-16z"/>
   <path class="fil0" d="M803 234c-8,7 -14,13 -9,23 10,6 22,3 28,-7 -1,-11 -9,-15 -19,-16z"/>
   <path class="fil0" d="M1031 234c-7,7 -13,13 -8,23 10,6 22,3 27,-7 -1,-11 -8,-15 -19,-16z"/>
   <path class="fil0" d="M917 234c-8,7 -14,13 -9,23 10,6 22,3 28,-7 -1,-11 -9,-15 -19,-16z"/>
   <path class="fil0" d="M688 234c-7,7 -13,13 -8,23 10,6 22,3 28,-7 -2,-11 -9,-15 -20,-16z"/>
   <path class="fil0" d="M231 4c-7,7 -13,13 -8,24 10,5 22,2 27,-8 -1,-11 -8,-15 -19,-16z"/>
   <path class="fil0" d="M517 176c-8,7 -14,13 -9,24 10,5 22,3 28,-8 -1,-10 -9,-15 -19,-16z"/>
   <path class="fil0" d="M403 176c-8,7 -14,13 -9,24 10,5 22,3 28,-8 -1,-10 -9,-15 -19,-16z"/>
   <path class="fil0" d="M403 291c-8,7 -14,13 -9,24 10,5 22,2 28,-8 -1,-11 -9,-15 -19,-16z"/>
   <path class="fil0" d="M517 291c-8,7 -14,13 -9,24 10,5 22,2 28,-8 -1,-11 -9,-15 -19,-16z"/>
   <path class="fil0" d="M746 291c-8,7 -14,13 -9,24 10,5 22,2 28,-8 -2,-11 -9,-15 -19,-16z"/>
   <path class="fil0" d="M860 291c-8,7 -14,13 -9,24 10,5 22,2 28,-8 -1,-11 -9,-15 -19,-16z"/>
   <path class="fil0" d="M631 291c-7,7 -13,13 -8,24 10,5 22,2 27,-8 -1,-11 -8,-15 -19,-16z"/>
   <path class="fil0" d="M974 291c-8,7 -13,13 -8,24 10,5 22,2 27,-8 -1,-11 -8,-15 -19,-16z"/>
   <path class="fil0" d="M1088 291c-7,7 -13,13 -8,24 10,5 22,2 28,-8 -2,-11 -9,-15 -20,-16z"/>
   <path class="fil0" d="M60 61c-8,7 -14,13 -9,24 10,5 22,3 28,-7 -1,-11 -9,-16 -19,-17z"/>
   <path class="fil0" d="M60 406c-8,7 -14,13 -9,24 10,5 22,2 28,-8 -1,-11 -9,-15 -19,-16z"/>
   <path class="fil0" d="M574 4c-8,7 -13,13 -9,24 11,5 23,2 28,-8 -1,-11 -8,-15 -19,-16z"/>
   <path class="fil0" d="M288 61c-7,7 -13,13 -8,24 10,5 22,3 28,-7 -1,-11 -9,-16 -20,-17z"/>
   <path class="fil0" d="M403 406c-8,7 -14,13 -9,24 10,5 22,2 28,-8 -1,-11 -9,-15 -19,-16z"/>
   <path class="fil0" d="M517 406c-8,7 -14,13 -9,24 10,5 22,2 28,-8 -1,-11 -9,-15 -19,-16z"/>
   <path class="fil0" d="M746 176c-8,7 -14,13 -9,24 10,5 22,3 28,-8 -1,-10 -9,-15 -19,-16z"/>
   <path class="fil0" d="M974 176c-8,7 -13,13 -8,24 10,5 22,3 27,-8 -1,-10 -9,-15 -19,-16z"/>
   <path class="fil0" d="M860 176c-8,7 -14,13 -9,24 10,5 22,3 28,-8 -1,-10 -9,-15 -19,-16z"/>
   <path class="fil0" d="M288 291c-7,7 -13,13 -8,24 10,5 22,2 28,-8 -1,-11 -9,-15 -20,-16z"/>
   <path class="fil0" d="M803 4c-8,7 -14,13 -9,24 10,5 22,2 28,-8 -1,-11 -9,-15 -19,-16z"/>
   <path class="fil0" d="M917 4c-8,7 -14,13 -9,24 10,5 22,2 28,-8 -1,-11 -9,-15 -19,-16z"/>
   <path class="fil0" d="M688 4c-7,7 -13,13 -8,24 10,5 22,2 28,-8 -2,-11 -9,-15 -20,-16z"/>
   <path class="fil0" d="M1031 4c-7,7 -13,13 -8,24 10,5 22,2 27,-8 -1,-11 -8,-15 -19,-16z"/>
   <path class="fil0" d="M117 349c-8,6 -14,12 -9,23 10,5 22,3 28,-7 -1,-11 -9,-16 -19,-16z"/>
   <path class="fil0" d="M460 234c-8,7 -14,13 -9,23 10,6 22,3 28,-7 -1,-11 -9,-15 -19,-16z"/>
   <path class="fil0" d="M346 234c-8,7 -14,13 -9,23 10,6 22,3 28,-7 -2,-11 -9,-15 -19,-16z"/>
   <path class="fil0" d="M346 4c-8,7 -14,13 -9,24 10,5 22,2 28,-8 -2,-11 -9,-15 -19,-16z"/>
   <path class="fil0" d="M460 4c-8,7 -14,13 -9,24 10,5 22,2 28,-8 -1,-11 -9,-15 -19,-16z"/>
   <path class="fil0" d="M174 291c-8,7 -13,13 -9,24 10,5 23,2 28,-8 -1,-11 -9,-15 -19,-16z"/>
   <path class="fil0" d="M288 406c-7,7 -13,13 -8,24 10,5 22,2 28,-8 -1,-11 -9,-15 -20,-16z"/>
   <path class="fil0" d="M688 119c-7,7 -13,13 -8,24 10,5 22,2 28,-8 -2,-11 -9,-15 -20,-16z"/>
   <path class="fil0" d="M803 119c-8,7 -14,13 -9,24 10,5 22,2 28,-8 -1,-11 -9,-15 -19,-16z"/>
   <path class="fil0" d="M917 119c-8,7 -14,13 -9,24 10,5 22,2 28,-8 -1,-11 -9,-15 -19,-16z"/>
   <path class="fil0" d="M1031 119c-7,7 -13,13 -8,24 10,5 22,2 27,-8 -1,-11 -8,-15 -19,-16z"/>
   <path class="fil0" d="M117 119c-8,7 -14,13 -9,23 10,6 22,3 28,-7 -1,-11 -9,-15 -19,-16z"/>
   <path class="fil0" d="M117 4c-8,7 -14,13 -9,24 10,5 22,2 28,-8 -1,-11 -9,-15 -19,-16z"/>
   <path class="fil0" d="M117 234c-8,7 -14,13 -9,23 10,6 22,3 28,-7 -1,-11 -9,-15 -19,-16z"/>
   <path class="fil0" d="M174 406c-8,7 -13,13 -9,24 10,5 22,2 28,-8 -1,-11 -8,-15 -19,-16z"/>
   <path class="fil0" d="M231 119c-8,7 -13,13 -8,24 10,5 22,2 27,-8 -1,-11 -9,-15 -19,-16z"/>
   <path class="fil0" d="M231 349c-8,6 -13,13 -8,23 10,5 22,3 27,-7 -1,-11 -9,-15 -19,-16z"/>
   <path class="fil0" d="M746 406c-8,7 -14,13 -9,24 10,5 22,2 28,-8 -2,-11 -9,-15 -19,-16z"/>
   <path class="fil0" d="M974 406c-8,7 -13,13 -8,24 10,5 22,2 27,-8 -1,-11 -9,-15 -19,-16z"/>
   <path class="fil0" d="M1088 406c-7,7 -13,13 -8,24 10,5 22,2 28,-8 -2,-11 -9,-15 -20,-16z"/>
   <path class="fil0" d="M860 406c-8,7 -14,13 -9,24 10,5 22,2 28,-8 -1,-11 -9,-15 -19,-16z"/>
   <path class="fil0" d="M631 406c-7,7 -13,13 -8,24 10,5 22,2 27,-8 -1,-11 -8,-15 -19,-16z"/>
   <path class="fil0" d="M803 349c-8,6 -14,13 -9,23 10,5 22,3 28,-7 -1,-11 -9,-15 -19,-16z"/>
   <path class="fil0" d="M1031 349c-7,6 -13,13 -8,23 10,5 22,3 27,-7 -1,-11 -8,-15 -19,-16z"/>
   <path class="fil0" d="M688 349c-7,6 -13,13 -8,23 10,5 22,3 28,-7 -2,-11 -9,-15 -20,-16z"/>
   <path class="fil0" d="M917 349c-8,6 -14,13 -9,23 11,5 22,3 28,-7 -1,-11 -9,-15 -19,-16z"/>
   <path class="fil0" d="M0 463l0 28c10,-2 19,-2 23,-13 -2,-10 -12,-16 -23,-15z"/>
   <path class="fil0" d="M0 349l0 27c10,-2 19,-2 23,-13 -2,-10 -12,-15 -23,-14z"/>
   <path class="fil0" d="M0 119l0 27c10,-2 19,-2 23,-12 -2,-11 -12,-16 -23,-15z"/>
   <path class="fil0" d="M0 234l0 27c10,-2 19,-2 23,-12 -2,-11 -12,-16 -23,-15z"/>
   <path class="fil0" d="M0 693l0 27c10,-1 19,-1 23,-12 -2,-10 -12,-16 -23,-15z"/>
   <path class="fil0" d="M0 808l0 27c10,-2 19,-2 23,-12 -2,-11 -12,-16 -23,-15z"/>
   <path class="fil0" d="M0 1038l0 27c10,-2 19,-2 23,-13 -2,-10 -12,-15 -23,-14z"/>
   <path class="fil0" d="M0 923l0 27c10,-2 19,-2 23,-12 -2,-11 -12,-16 -23,-15z"/>
   <path class="fil0" d="M0 578l0 28c10,-2 19,-2 23,-13 -2,-10 -12,-16 -23,-15z"/>
   <path class="fil0" d="M0 4l0 27c10,-2 19,-2 23,-12 -2,-10 -12,-16 -23,-15z"/>
   <path class="fil0" d="M1143 491l0 -27c-6,5 -10,15 -9,23l9 4z"/>
   <path class="fil0" d="M1143 721l0 -27c-6,4 -10,15 -9,23l9 4z"/>
   <path class="fil0" d="M1143 835l0 -26c-6,4 -10,15 -9,23l9 3z"/>
   <path class="fil0" d="M1143 1065l0 -26c-6,4 -10,15 -9,23l9 3z"/>
   <path class="fil0" d="M1143 950l0 -26c-6,4 -10,15 -9,23l9 3z"/>
   <path class="fil0" d="M256 577c1,-7 2,-11 -3,-16 -9,3 -10,8 -6,17l9 -1z"/>
   <path class="fil0" d="M256 463c1,-8 2,-12 -3,-17 -9,3 -10,8 -6,17l9 0z"/>
   <path class="fil0" d="M27 577c1,-8 3,-11 -3,-17 -8,4 -9,9 -6,18l9 -1z"/>
   <path class="fil0" d="M27 463c1,-9 3,-11 -3,-18 -8,4 -9,9 -6,18l9 0z"/>
   <path class="fil0" d="M1143 606l0 -27c-6,5 -10,15 -9,23l9 4z"/>
   <path class="fil0" d="M370 692c1,-8 3,-11 -3,-17 -8,4 -9,9 -6,17l9 0z"/>
   <path class="fil0" d="M484 692c2,-8 3,-11 -3,-17 -8,4 -9,9 -6,17l9 0z"/>
   <path class="fil0" d="M370 807c1,-8 3,-11 -3,-17 -8,4 -9,8 -6,17l9 0z"/>
   <path class="fil0" d="M484 807c2,-8 3,-11 -3,-17 -8,4 -9,8 -6,17l9 0z"/>
   <path class="fil0" d="M370 922c1,-8 3,-11 -3,-17 -8,4 -9,8 -6,17l9 0z"/>
   <path class="fil0" d="M370 1037c1,-8 3,-11 -3,-17 -8,3 -9,8 -6,17l9 0z"/>
   <path class="fil0" d="M484 922c2,-8 3,-11 -3,-17 -8,4 -9,8 -6,17l9 0z"/>
   <path class="fil0" d="M484 1037c2,-8 3,-11 -3,-17 -8,3 -9,8 -6,17l9 0z"/>
   <path class="fil0" d="M84 979c2,-8 3,-11 -3,-17 -8,4 -9,9 -6,18l9 -1z"/>
   <path class="fil0" d="M84 1094c2,-8 3,-11 -3,-17 -8,4 -9,9 -6,18l9 -1z"/>
   <path class="fil0" d="M84 864c2,-8 3,-10 -3,-17 -8,4 -9,9 -6,18l9 -1z"/>
   <path class="fil0" d="M84 750c2,-9 3,-11 -3,-17 -8,3 -9,8 -6,17l9 0z"/>
   <path class="fil0" d="M84 635c2,-8 3,-11 -3,-17 -8,3 -9,8 -6,17l9 0z"/>
   <path class="fil0" d="M827 463c2,-9 3,-11 -3,-18 -8,4 -9,9 -6,18l9 0z"/>
   <path class="fil0" d="M941 577c2,-8 3,-11 -3,-17 -8,4 -9,9 -6,18l9 -1z"/>
   <path class="fil0" d="M827 577c2,-8 3,-11 -3,-17 -8,4 -9,9 -6,18l9 -1z"/>
   <path class="fil0" d="M1056 463c1,-9 2,-11 -3,-18 -9,4 -10,9 -6,18l9 0z"/>
   <path class="fil0" d="M713 577c1,-8 2,-11 -3,-17 -8,4 -9,9 -6,18l9 -1z"/>
   <path class="fil0" d="M941 463c2,-9 3,-11 -3,-18 -8,4 -9,9 -6,18l9 0z"/>
   <path class="fil0" d="M713 463c1,-9 2,-11 -3,-18 -8,4 -9,9 -6,18l9 0z"/>
   <path class="fil0" d="M1056 577c1,-8 2,-11 -3,-17 -9,4 -10,9 -6,18l9 -1z"/>
   <path class="fil0" d="M27 692c1,-8 3,-11 -3,-17 -8,4 -9,9 -6,17l9 0z"/>
   <path class="fil0" d="M27 807c1,-8 3,-11 -3,-17 -8,4 -9,8 -6,17l9 0z"/>
   <path class="fil0" d="M27 922c1,-8 3,-11 -3,-17 -8,4 -9,8 -6,17l9 0z"/>
   <path class="fil0" d="M27 1037c1,-8 3,-11 -3,-17 -8,3 -9,8 -6,17l9 0z"/>
   <path class="fil0" d="M656 520c1,-8 2,-11 -3,-17 -9,4 -10,8 -6,17l9 0z"/>
   <path class="fil0" d="M770 520c1,-8 3,-11 -3,-17 -8,4 -9,8 -6,17l9 0z"/>
   <path class="fil0" d="M1113 520c1,-8 2,-11 -3,-17 -8,4 -9,8 -6,17l9 0z"/>
   <path class="fil0" d="M999 520c1,-8 2,-11 -3,-17 -9,4 -10,8 -6,17l9 0z"/>
   <path class="fil0" d="M884 520c2,-8 3,-11 -3,-17 -8,4 -9,8 -6,17l9 0z"/>
   <path class="fil0" d="M599 1037c1,-8 2,-11 -3,-17 -9,3 -10,8 -6,17l9 0z"/>
   <path class="fil0" d="M599 922c1,-8 2,-11 -3,-17 -9,4 -10,8 -6,17l9 0z"/>
   <path class="fil0" d="M599 807c1,-8 2,-11 -3,-17 -9,4 -10,8 -6,17l9 0z"/>
   <path class="fil0" d="M84 520c2,-8 3,-11 -3,-17 -8,4 -9,8 -6,17l9 0z"/>
   <path class="fil0" d="M1113 635c1,-8 2,-11 -3,-17 -8,3 -9,8 -6,17l9 0z"/>
   <path class="fil0" d="M999 1094c1,-8 2,-11 -3,-17 -9,4 -10,8 -6,17l9 0z"/>
   <path class="fil0" d="M1113 1094c1,-8 2,-11 -3,-17 -8,4 -9,8 -6,17l9 0z"/>
   <path class="fil0" d="M770 979c1,-8 3,-11 -3,-17 -8,4 -9,9 -6,18l9 -1z"/>
   <path class="fil0" d="M1113 750c1,-8 2,-11 -3,-17 -8,3 -9,8 -6,17l9 0z"/>
   <path class="fil0" d="M884 979c2,-8 3,-11 -3,-17 -8,4 -9,9 -6,18l9 -1z"/>
   <path class="fil0" d="M999 750c1,-8 2,-11 -3,-17 -9,3 -10,8 -6,17l9 0z"/>
   <path class="fil0" d="M999 979c1,-8 2,-11 -3,-17 -9,4 -10,9 -6,18l9 -1z"/>
   <path class="fil0" d="M1113 979c1,-8 2,-11 -3,-17 -8,4 -9,9 -6,18l9 -1z"/>
   <path class="fil0" d="M656 750c1,-8 2,-11 -3,-17 -9,3 -10,8 -6,17l9 0z"/>
   <path class="fil0" d="M1113 864c1,-8 2,-10 -3,-17 -8,4 -9,9 -6,18l9 -1z"/>
   <path class="fil0" d="M999 635c1,-8 2,-11 -3,-17 -9,3 -10,8 -6,17l9 0z"/>
   <path class="fil0" d="M884 635c2,-8 3,-11 -3,-17 -8,3 -9,8 -6,17l9 0z"/>
   <path class="fil0" d="M770 635c1,-8 3,-11 -3,-17 -8,3 -9,8 -6,17l9 0z"/>
   <path class="fil0" d="M999 864c1,-8 2,-10 -3,-17 -9,4 -10,9 -6,18l9 -1z"/>
   <path class="fil0" d="M884 864c2,-8 3,-10 -3,-17 -8,4 -9,9 -6,18l9 -1z"/>
   <path class="fil0" d="M770 864c1,-8 3,-10 -3,-17 -8,4 -9,9 -6,18l9 -1z"/>
   <path class="fil0" d="M656 864c1,-8 2,-10 -3,-17 -9,4 -10,9 -6,18l9 -1z"/>
   <path class="fil0" d="M656 635c1,-8 2,-11 -3,-17 -9,3 -10,8 -6,17l9 0z"/>
   <path class="fil0" d="M656 979c1,-8 2,-11 -3,-17 -9,4 -10,9 -6,18l9 -1z"/>
   <path class="fil0" d="M656 1094c1,-8 2,-11 -3,-17 -9,4 -10,8 -6,17l9 0z"/>
   <path class="fil0" d="M770 1094c1,-8 3,-11 -3,-17 -8,4 -9,8 -6,17l9 0z"/>
   <path class="fil0" d="M884 1094c2,-8 3,-11 -3,-17 -8,4 -9,8 -6,17l9 0z"/>
   <path class="fil0" d="M579 680c4,-8 2,-15 -7,-18 -4,6 -5,19 7,18z"/>
   <path class="fil0" d="M427 520c1,-8 3,-11 -3,-17 -8,4 -9,8 -6,17l9 0z"/>
   <path class="fil0" d="M541 520c2,-8 3,-11 -3,-17 -8,4 -9,8 -6,17l9 0z"/>
   <path class="fil0" d="M198 1094c2,-8 3,-11 -2,-17 -9,4 -10,8 -6,17l8 0z"/>
   <path class="fil0" d="M198 979c2,-8 3,-11 -2,-17 -9,4 -10,9 -6,18l8 -1z"/>
   <path class="fil0" d="M198 750c2,-9 3,-11 -2,-17 -9,3 -10,8 -6,17l8 0z"/>
   <path class="fil0" d="M198 864c2,-8 3,-10 -2,-17 -9,4 -10,9 -6,18l8 -1z"/>
   <path class="fil0" d="M198 635c2,-8 3,-11 -2,-17 -9,3 -10,8 -6,17l8 0z"/>
   <path class="fil0" d="M198 520c2,-8 3,-11 -2,-17 -9,4 -10,8 -6,17l8 0z"/>
   <path class="fil0" d="M313 750c1,-8 2,-11 -3,-17 -8,3 -9,8 -6,17l9 0z"/>
   <path class="fil0" d="M313 864c1,-8 2,-10 -3,-17 -8,4 -9,9 -6,18l9 -1z"/>
   <path class="fil0" d="M427 635c2,-8 3,-11 -3,-17 -8,3 -9,8 -6,17l9 0z"/>
   <path class="fil0" d="M541 635c2,-8 3,-11 -3,-17 -8,3 -9,8 -6,17l9 0z"/>
   <path class="fil0" d="M313 635c1,-8 2,-11 -3,-17 -8,3 -9,8 -6,17l9 0z"/>
   <path class="fil0" d="M541 864c2,-8 3,-10 -3,-17 -8,4 -9,9 -6,18l9 -1z"/>
   <path class="fil0" d="M427 750c2,-8 3,-11 -3,-17 -8,3 -9,8 -6,17l9 0z"/>
   <path class="fil0" d="M541 750c2,-8 3,-11 -3,-17 -8,3 -9,8 -6,17l9 0z"/>
   <path class="fil0" d="M427 864c2,-8 3,-10 -3,-17 -8,4 -9,9 -6,18l9 -1z"/>
   <path class="fil0" d="M313 1094c1,-8 2,-11 -3,-17 -8,4 -9,8 -6,17l9 0z"/>
   <path class="fil0" d="M541 1094c2,-8 3,-11 -3,-17 -8,4 -9,8 -6,17l9 0z"/>
   <path class="fil0" d="M313 979c1,-8 2,-11 -3,-17 -8,4 -9,9 -6,18l9 -1z"/>
   <path class="fil0" d="M427 979c2,-8 3,-11 -3,-17 -8,4 -9,9 -6,18l9 -1z"/>
   <path class="fil0" d="M541 979c2,-8 3,-11 -3,-17 -8,4 -9,9 -6,18l9 -1z"/>
   <path class="fil0" d="M427 1094c2,-8 3,-11 -3,-17 -8,4 -9,8 -6,17l9 0z"/>
   <path class="fil0" d="M827 807c1,-8 3,-11 -3,-17 -8,4 -9,8 -6,17l9 0z"/>
   <path class="fil0" d="M941 807c2,-8 3,-11 -3,-17 -8,4 -9,8 -5,17l8 0z"/>
   <path class="fil0" d="M1056 807c1,-8 2,-11 -3,-17 -9,4 -10,8 -6,17l9 0z"/>
   <path class="fil0" d="M713 692c1,-8 2,-11 -3,-17 -8,4 -10,9 -6,17l9 0z"/>
   <path class="fil0" d="M827 692c1,-8 3,-11 -3,-17 -8,4 -9,9 -6,17l9 0z"/>
   <path class="fil0" d="M1056 1037c1,-8 2,-11 -3,-17 -9,3 -10,8 -6,17l9 0z"/>
   <path class="fil0" d="M941 1037c2,-8 3,-11 -3,-17 -8,3 -9,8 -5,17l8 0z"/>
   <path class="fil0" d="M827 1037c1,-8 3,-11 -3,-17 -8,3 -9,8 -6,17l9 0z"/>
   <path class="fil0" d="M713 1037c1,-8 2,-11 -3,-17 -8,3 -10,8 -6,17l9 0z"/>
   <path class="fil0" d="M1056 922c1,-8 2,-11 -3,-17 -9,4 -10,8 -6,17l9 0z"/>
   <path class="fil0" d="M941 922c2,-8 3,-11 -3,-17 -8,4 -9,8 -5,17l8 0z"/>
   <path class="fil0" d="M827 922c1,-8 3,-11 -3,-17 -8,4 -9,8 -6,17l9 0z"/>
   <path class="fil0" d="M713 922c1,-8 2,-11 -3,-17 -8,4 -10,8 -6,17l9 0z"/>
   <path class="fil0" d="M941 692c2,-8 3,-11 -3,-17 -8,4 -9,9 -5,17l8 0z"/>
   <path class="fil0" d="M1056 692c1,-8 2,-11 -3,-17 -9,4 -10,9 -6,17l9 0z"/>
   <path class="fil0" d="M713 807c1,-8 2,-11 -3,-17 -8,4 -10,8 -6,17l9 0z"/>
   <path class="fil0" d="M599 577c1,-8 2,-11 -3,-17 -9,4 -8,7 -8,17l11 0z"/>
   <path class="fil0" d="M599 463c1,-9 2,-11 -3,-18 -9,4 -8,7 -8,17l11 1z"/>
   <path class="fil0" d="M747 623c11,-6 5,-16 -3,-19 -5,7 -4,16 3,19z"/>
   <path class="fil0" d="M861 623c12,-6 5,-16 -3,-19 -4,7 -4,16 3,19z"/>
   <path class="fil0" d="M976 623c11,-6 4,-16 -4,-19 -4,7 -4,16 4,19z"/>
   <path class="fil0" d="M1090 623c11,-6 5,-16 -3,-19 -5,7 -5,16 3,19z"/>
   <path class="fil0" d="M633 623c11,-6 5,-16 -3,-19 -5,7 -5,16 3,19z"/>
   <path class="fil0" d="M747 968c11,-6 5,-16 -3,-19 -5,6 -4,15 3,19z"/>
   <path class="fil0" d="M633 738c11,-6 5,-16 -3,-19 -5,6 -5,16 3,19z"/>
   <path class="fil0" d="M1090 738c11,-6 5,-16 -3,-19 -5,6 -5,16 3,19z"/>
   <path class="fil0" d="M747 1083c11,-6 5,-17 -3,-19 -5,6 -4,15 3,19z"/>
   <path class="fil0" d="M633 1083c11,-6 5,-17 -3,-19 -5,6 -5,15 3,19z"/>
   <path class="fil0" d="M976 1083c11,-6 4,-17 -4,-19 -4,6 -4,15 4,19z"/>
   <path class="fil0" d="M1090 853c11,-6 5,-16 -3,-19 -5,6 -5,16 3,19z"/>
   <path class="fil0" d="M633 853c11,-6 5,-16 -3,-19 -5,6 -5,16 3,19z"/>
   <path class="fil0" d="M1090 1083c11,-6 5,-17 -3,-19 -5,6 -5,15 3,19z"/>
   <path class="fil0" d="M976 853c11,-6 4,-16 -4,-19 -4,6 -4,16 4,19z"/>
   <path class="fil0" d="M861 853c12,-6 5,-16 -3,-19 -4,6 -4,16 3,19z"/>
   <path class="fil0" d="M747 853c11,-6 5,-16 -3,-19 -5,6 -4,16 3,19z"/>
   <path class="fil0" d="M861 1083c12,-6 5,-17 -3,-19 -4,6 -4,15 3,19z"/>
   <path class="fil0" d="M976 738c11,-6 4,-16 -4,-19 -4,6 -4,16 4,19z"/>
   <path class="fil0" d="M633 968c11,-6 5,-16 -3,-19 -5,6 -5,15 3,19z"/>
   <path class="fil0" d="M861 968c12,-6 5,-16 -3,-19 -4,6 -4,15 3,19z"/>
   <path class="fil0" d="M976 968c11,-6 4,-16 -4,-19 -4,6 -4,15 4,19z"/>
   <path class="fil0" d="M1090 968c11,-6 5,-16 -3,-19 -5,6 -5,15 3,19z"/>
   <path class="fil0" d="M141 922c2,-8 3,-11 -3,-17 -8,3 -8,7 -7,16l10 1z"/>
   <path class="fil0" d="M141 807c2,-8 3,-11 -3,-17 -8,4 -8,7 -7,17l10 0z"/>
   <path class="fil0" d="M141 1037c2,-8 3,-11 -3,-17 -8,3 -8,6 -7,16l10 1z"/>
   <path class="fil0" d="M141 692c2,-8 3,-11 -3,-17 -8,4 -8,7 -7,17l10 0z"/>
   <path class="fil0" d="M233 1140c11,-6 4,-16 -3,-19 -5,6 -5,16 3,19z"/>
   <path class="fil0" d="M747 508c11,-5 5,-16 -3,-18 -5,6 -4,15 3,18z"/>
   <path class="fil0" d="M633 508c11,-5 4,-16 -3,-18 -5,6 -5,15 3,18z"/>
   <path class="fil0" d="M1090 508c11,-5 5,-16 -3,-18 -5,6 -5,15 3,18z"/>
   <path class="fil0" d="M976 508c11,-5 4,-16 -4,-18 -4,6 -4,15 4,18z"/>
   <path class="fil0" d="M861 508c12,-5 5,-16 -3,-18 -4,6 -4,15 3,18z"/>
   <path class="fil0" d="M484 463c2,-9 3,-11 -3,-18 -8,4 -8,7 -7,17l10 1z"/>
   <path class="fil0" d="M370 463c1,-9 3,-11 -3,-18 -8,4 -8,7 -7,17l10 1z"/>
   <path class="fil0" d="M484 577c2,-8 3,-11 -3,-17 -8,4 -8,7 -7,17l10 0z"/>
   <path class="fil0" d="M370 577c1,-8 3,-11 -3,-17 -8,4 -8,7 -7,17l10 0z"/>
   <path class="fil0" d="M118 1140c12,-6 5,-16 -3,-19 -4,6 -4,16 3,19z"/>
   <path class="fil0" d="M884 750c2,-8 3,-11 -3,-17 -8,3 -8,6 -7,16l10 1z"/>
   <path class="fil0" d="M770 750c1,-8 3,-11 -3,-17 -8,3 -8,6 -7,16l10 1z"/>
   <path class="fil0" d="M499 52l9 1c2,-11 -1,-15 -9,-20 -2,9 -3,10 0,19z"/>
   <path class="fil0" d="M385 52l9 1c2,-11 -1,-15 -9,-20 -2,9 -3,10 0,19z"/>
   <path class="fil0" d="M1033 1140c11,-6 4,-16 -3,-19 -5,6 -5,16 3,19z"/>
   <path class="fil0" d="M690 1140c11,-6 5,-16 -3,-19 -5,6 -5,16 3,19z"/>
   <path class="fil0" d="M804 1140c12,-6 5,-16 -3,-19 -5,6 -4,16 3,19z"/>
   <path class="fil0" d="M918 1140c12,-6 5,-16 -3,-19 -4,6 -4,16 3,19z"/>
   <path class="fil0" d="M576 795c11,-5 4,-16 -4,-18 -4,6 -4,15 4,18z"/>
   <path class="fil0" d="M576 910c11,-5 4,-16 -4,-18 -4,6 -4,15 4,18z"/>
   <path class="fil0" d="M576 1025c11,-6 4,-16 -4,-19 -4,7 -4,16 4,19z"/>
   <path class="fil0" d="M576 1140c11,-6 4,-16 -4,-19 -4,6 -4,16 4,19z"/>
   <path class="fil0" d="M313 520c1,-8 2,-11 -3,-17 -8,4 -8,7 -8,16l11 1z"/>
   <path class="fil0" d="M404 508c12,-5 5,-16 -3,-18 -5,6 -4,15 3,18z"/>
   <path class="fil0" d="M518 508c12,-5 5,-16 -3,-18 -4,6 -4,15 3,18z"/>
   <path class="fil0" d="M690 566c11,-6 5,-16 -3,-19 -5,6 -5,15 3,19z"/>
   <path class="fil0" d="M804 566c12,-6 5,-16 -3,-19 -5,6 -4,15 3,19z"/>
   <path class="fil0" d="M918 451c12,-6 5,-16 -3,-19 -4,6 -4,16 3,19z"/>
   <path class="fil0" d="M690 451c11,-6 5,-16 -3,-19 -5,6 -5,16 3,19z"/>
   <path class="fil0" d="M918 566c12,-6 5,-16 -3,-19 -4,6 -4,15 3,19z"/>
   <path class="fil0" d="M1033 566c11,-6 4,-16 -3,-19 -5,6 -5,15 3,19z"/>
   <path class="fil0" d="M804 451c12,-6 5,-16 -3,-19 -5,6 -4,16 3,19z"/>
   <path class="fil0" d="M1033 451c11,-6 4,-16 -3,-19 -5,6 -5,16 3,19z"/>
   <path class="fil0" d="M347 795c11,-5 5,-16 -3,-18 -5,6 -4,15 3,18z"/>
   <path class="fil0" d="M461 795c12,-5 5,-16 -3,-18 -5,6 -4,15 3,18z"/>
   <path class="fil0" d="M347 910c11,-5 5,-16 -3,-18 -5,6 -4,15 3,18z"/>
   <path class="fil0" d="M461 910c12,-5 5,-16 -3,-18 -5,6 -4,15 3,18z"/>
   <path class="fil0" d="M461 1025c12,-6 5,-16 -3,-19 -5,7 -4,16 3,19z"/>
   <path class="fil0" d="M347 1025c11,-6 5,-16 -3,-19 -5,7 -4,16 3,19z"/>
   <path class="fil0" d="M461 681c12,-6 5,-17 -3,-19 -5,6 -4,15 3,19z"/>
   <path class="fil0" d="M347 681c11,-6 5,-17 -3,-19 -5,6 -4,15 3,19z"/>
   <path class="fil0" d="M347 1140c11,-6 5,-16 -3,-19 -5,6 -4,16 3,19z"/>
   <path class="fil0" d="M461 1140c12,-6 5,-16 -3,-19 -5,6 -4,16 3,19z"/>
   <path class="fil0" d="M256 922c1,-8 2,-11 -3,-17 -8,4 -10,8 -6,17l9 0z"/>
   <path class="fil0" d="M256 1037c1,-8 2,-11 -3,-17 -8,4 -10,8 -6,17l9 0z"/>
   <path class="fil0" d="M256 807c1,-8 2,-11 -3,-17 -8,4 -10,8 -6,17l9 0z"/>
   <path class="fil0" d="M256 692c1,-8 2,-11 -3,-17 -8,4 -10,8 -6,17l9 0z"/>
   <path class="fil0" d="M141 577c2,-7 3,-11 -3,-16 -8,3 -9,8 -5,17l8 -1z"/>
   <path class="fil0" d="M141 463c2,-8 3,-12 -3,-17 -8,3 -9,8 -5,17l8 0z"/>
   <path class="fil0" d="M599 692c1,-8 2,-11 -3,-17 -8,4 -9,7 -8,17l11 0z"/>
   <path class="fil0" d="M385 493c-2,9 -3,9 0,18l9 0c2,-9 -1,-14 -9,-18z"/>
   <path class="fil0" d="M499 493c-2,9 -3,9 0,18l9 0c2,-9 -1,-14 -9,-18z"/>
   <path class="fil0" d="M842 493c-2,9 -3,9 0,18l9 0c2,-9 -1,-14 -9,-18z"/>
   <path class="fil0" d="M956 493c-1,9 -3,9 0,18l9 0c2,-9 -1,-14 -9,-18z"/>
   <path class="fil0" d="M613 493c-1,9 -2,9 0,18l10 0c2,-9 -2,-14 -10,-18z"/>
   <path class="fil0" d="M1070 493c-1,9 -2,9 1,18l9 0c2,-9 -1,-14 -10,-18z"/>
   <path class="fil0" d="M727 493c-1,9 -2,9 1,18l9 0c2,-9 -1,-14 -10,-18z"/>
   <path class="fil0" d="M156 608c-1,8 -3,9 0,18l9 0c2,-9 -1,-14 -9,-18z"/>
   <path class="fil0" d="M156 723c-1,8 -3,9 0,18l9 0c2,-9 -1,-15 -9,-18z"/>
   <path class="fil0" d="M270 723c-1,8 -2,9 1,18l9 0c2,-9 -1,-15 -10,-18z"/>
   <path class="fil0" d="M270 608c-1,8 -2,9 1,18l9 0c2,-9 -1,-14 -10,-18z"/>
   <path class="fil0" d="M270 837c-1,9 -2,10 1,19l9 0c2,-9 -1,-15 -10,-19z"/>
   <path class="fil0" d="M156 1067c-1,9 -3,9 0,19l9 -1c2,-8 -1,-14 -9,-18z"/>
   <path class="fil0" d="M270 1067c-1,9 -2,9 1,19l9 -1c2,-8 -1,-14 -10,-18z"/>
   <path class="fil0" d="M156 952c-1,9 -3,10 0,19l9 0c2,-9 -1,-15 -9,-19z"/>
   <path class="fil0" d="M270 952c-1,9 -2,10 1,19l9 0c2,-9 -1,-15 -10,-19z"/>
   <path class="fil0" d="M156 837c-1,9 -3,10 0,19l9 0c2,-9 -1,-15 -9,-19z"/>
   <path class="fil0" d="M42 493c-2,9 -3,9 0,18l9 0c2,-9 -1,-14 -9,-18z"/>
   <path class="fil0" d="M385 1067c-2,9 -3,9 0,19l9 -1c2,-8 -1,-14 -9,-18z"/>
   <path class="fil0" d="M385 952c-2,9 -3,10 0,19l9 0c2,-9 -1,-15 -9,-19z"/>
   <path class="fil0" d="M499 952c-2,9 -3,10 0,19l9 0c2,-9 -1,-15 -9,-19z"/>
   <path class="fil0" d="M385 723c-2,8 -3,9 0,18l9 0c2,-9 -1,-15 -9,-18z"/>
   <path class="fil0" d="M499 723c-2,8 -3,9 0,18l9 0c2,-9 -1,-15 -9,-18z"/>
   <path class="fil0" d="M499 837c-2,9 -3,10 0,19l9 0c2,-9 -1,-15 -9,-19z"/>
   <path class="fil0" d="M499 608c-2,8 -3,9 0,18l9 0c2,-9 -1,-14 -9,-18z"/>
   <path class="fil0" d="M385 608c-2,8 -3,9 0,18l9 0c2,-9 -1,-14 -9,-18z"/>
   <path class="fil0" d="M385 837c-2,9 -3,10 0,19l9 0c2,-9 -1,-15 -9,-19z"/>
   <path class="fil0" d="M499 1067c-2,9 -3,9 0,19l9 -1c2,-8 -1,-14 -9,-18z"/>
   <path class="fil0" d="M727 608c-1,8 -2,9 1,18l9 0c2,-9 -1,-14 -10,-18z"/>
   <path class="fil0" d="M1070 723c-1,8 -2,9 1,18l9 0c2,-9 -1,-15 -10,-18z"/>
   <path class="fil0" d="M613 723c-1,8 -2,9 0,18l10 0c2,-9 -2,-15 -10,-18z"/>
   <path class="fil0" d="M956 723c-1,8 -3,9 0,18l9 0c2,-9 -1,-15 -9,-18z"/>
   <path class="fil0" d="M613 608c-1,8 -2,9 0,18l10 0c2,-9 -2,-14 -10,-18z"/>
   <path class="fil0" d="M956 608c-1,8 -3,9 0,18l9 0c2,-9 -1,-14 -9,-18z"/>
   <path class="fil0" d="M1070 608c-1,8 -2,9 1,18l9 0c2,-9 -1,-14 -10,-18z"/>
   <path class="fil0" d="M842 608c-2,8 -3,9 0,18l9 0c2,-9 -1,-14 -9,-18z"/>
   <path class="fil0" d="M613 952c-1,9 -2,10 0,19l10 0c2,-9 -2,-15 -10,-19z"/>
   <path class="fil0" d="M1070 1067c-1,9 -2,9 1,19l9 -1c2,-8 -1,-14 -10,-18z"/>
   <path class="fil0" d="M613 837c-1,9 -2,10 0,19l10 0c2,-9 -2,-15 -10,-19z"/>
   <path class="fil0" d="M727 837c-1,9 -2,10 1,19l9 0c2,-9 -1,-15 -10,-19z"/>
   <path class="fil0" d="M842 837c-2,9 -3,10 0,19l9 0c2,-9 -1,-15 -9,-19z"/>
   <path class="fil0" d="M1070 837c-1,9 -2,10 1,19l9 0c2,-9 -1,-15 -10,-19z"/>
   <path class="fil0" d="M956 952c-1,9 -3,10 0,19l9 0c2,-9 -1,-15 -9,-19z"/>
   <path class="fil0" d="M956 1067c-1,9 -3,9 0,19l9 -1c2,-8 -1,-14 -9,-18z"/>
   <path class="fil0" d="M842 952c-2,9 -3,10 0,19l9 0c2,-9 -1,-15 -9,-19z"/>
   <path class="fil0" d="M727 952c-1,9 -2,10 1,19l9 0c2,-9 -1,-15 -10,-19z"/>
   <path class="fil0" d="M842 1067c-2,9 -3,9 0,19l9 -1c2,-8 -1,-14 -9,-18z"/>
   <path class="fil0" d="M956 837c-1,9 -3,10 0,19l9 0c2,-9 -1,-15 -9,-19z"/>
   <path class="fil0" d="M1070 952c-1,9 -2,10 1,19l9 0c2,-9 -1,-15 -10,-19z"/>
   <path class="fil0" d="M613 1067c-1,9 -2,9 0,19l10 -1c2,-8 -2,-14 -10,-18z"/>
   <path class="fil0" d="M727 1067c-1,9 -2,9 1,19l9 -1c2,-8 -1,-14 -10,-18z"/>
   <path class="fil0" d="M899 550c-2,9 -3,10 0,19l9 0c2,-9 -1,-15 -9,-19z"/>
   <path class="fil0" d="M1013 550c-1,9 -2,10 0,19l10 0c1,-9 -2,-15 -10,-19z"/>
   <path class="fil0" d="M1127 550c-1,9 -2,10 1,19l9 0c2,-9 -1,-15 -10,-19z"/>
   <path class="fil0" d="M1127 435c-1,9 -2,10 1,19l9 0c2,-9 -1,-15 -10,-19z"/>
   <path class="fil0" d="M670 435c-1,9 -2,10 1,19l9 0c2,-9 -1,-15 -10,-19z"/>
   <path class="fil0" d="M785 435c-2,9 -3,10 0,19l9 0c2,-9 -1,-15 -9,-19z"/>
   <path class="fil0" d="M899 435c-2,9 -3,10 0,19l9 0c2,-9 -1,-15 -9,-19z"/>
   <path class="fil0" d="M1013 435c-1,9 -2,10 0,19l10 0c1,-9 -2,-15 -10,-19z"/>
   <path class="fil0" d="M670 550c-1,9 -2,10 1,19l9 0c2,-9 -1,-15 -10,-19z"/>
   <path class="fil0" d="M785 550c-2,9 -3,10 0,19l9 0c2,-9 -1,-15 -9,-19z"/>
   <path class="fil0" d="M1143 261l0 -26c-6,4 -10,15 -8,22l8 4z"/>
   <path class="fil0" d="M1127 665c-1,9 -2,9 1,19l9 -1c2,-8 -1,-14 -10,-18z"/>
   <path class="fil0" d="M1127 780c-1,9 -2,9 1,18l9 0c2,-8 -1,-14 -10,-18z"/>
   <path class="fil0" d="M1013 1124c-1,9 -2,10 0,19l10 0c1,-9 -2,-15 -10,-19z"/>
   <path class="fil0" d="M899 1124c-2,9 -3,10 0,19l9 0c2,-9 -1,-15 -9,-19z"/>
   <path class="fil0" d="M785 1124c-2,9 -3,10 0,19l9 0c2,-9 -1,-15 -9,-19z"/>
   <path class="fil0" d="M1127 1010c-1,8 -2,9 1,18l9 0c2,-9 -1,-15 -10,-18z"/>
   <path class="fil0" d="M670 1124c-1,9 -2,10 1,19l9 0c2,-9 -1,-15 -10,-19z"/>
   <path class="fil0" d="M1127 895c-1,9 -2,9 1,18l9 0c2,-9 -1,-14 -10,-18z"/>
   <path class="fil0" d="M1127 1124c-1,9 -2,10 1,19l9 0c2,-9 -1,-15 -10,-19z"/>
   <path class="fil0" d="M666 0l-8 0c2,8 5,23 15,11 -1,-7 -2,-5 -7,-11z"/>
   <path class="fil0" d="M780 0l-8 0c2,8 5,23 15,11 -1,-7 -1,-5 -7,-11z"/>
   <path class="fil0" d="M1123 0l-8 0c2,8 5,23 15,11 -1,-7 -1,-5 -7,-11z"/>
   <path class="fil0" d="M1009 0l-8 0c2,8 5,23 15,11 -1,-7 -2,-5 -7,-11z"/>
   <path class="fil0" d="M895 0l-9 0c2,8 6,23 15,11 0,-7 -1,-5 -6,-11z"/>
   <path class="fil0" d="M99 1124c-2,9 -3,10 0,19l9 0c2,-9 -1,-15 -9,-19z"/>
   <path class="fil0" d="M213 1124c-1,9 -2,10 0,19l10 0c1,-9 -2,-15 -10,-19z"/>
   <path class="fil0" d="M556 780c-1,9 -3,9 0,18l9 0c2,-8 -1,-14 -9,-18z"/>
   <path class="fil0" d="M556 895c-1,9 -3,9 0,18l9 0c2,-9 -1,-14 -9,-18z"/>
   <path class="fil0" d="M327 1010c-1,8 -2,9 1,18l9 0c2,-9 -1,-15 -10,-18z"/>
   <path class="fil0" d="M442 1010c-2,8 -3,9 0,18l9 0c2,-9 -1,-15 -9,-18z"/>
   <path class="fil0" d="M442 1124c-2,9 -3,10 0,19l9 0c2,-9 -1,-15 -9,-19z"/>
   <path class="fil0" d="M327 665c-1,9 -2,9 1,19l9 -1c2,-8 -1,-14 -10,-18z"/>
   <path class="fil0" d="M442 780c-2,9 -3,9 0,18l9 0c2,-8 -1,-14 -9,-18z"/>
   <path class="fil0" d="M442 895c-2,9 -3,9 0,18l9 0c2,-9 -1,-14 -9,-18z"/>
   <path class="fil0" d="M442 665c-2,9 -3,9 0,19l9 -1c2,-8 -1,-14 -9,-18z"/>
   <path class="fil0" d="M327 895c-1,9 -2,9 1,18l9 0c2,-9 -1,-14 -10,-18z"/>
   <path class="fil0" d="M556 1010c-1,8 -3,9 0,18l9 0c2,-9 -1,-15 -9,-18z"/>
   <path class="fil0" d="M327 1124c-1,9 -2,10 1,19l9 0c2,-9 -1,-15 -10,-19z"/>
   <path class="fil0" d="M556 1124c-1,9 -3,10 0,19l9 0c2,-9 -1,-15 -9,-19z"/>
   <path class="fil0" d="M327 780c-1,9 -2,9 1,18l9 0c2,-8 -1,-14 -10,-18z"/>
   <path class="fil0" d="M1013 1010c-1,8 -3,9 0,18l10 0c1,-9 -2,-15 -10,-18z"/>
   <path class="fil0" d="M785 665c-2,9 -3,10 0,19l9 -1c2,-8 -1,-14 -9,-18z"/>
   <path class="fil0" d="M899 665c-1,9 -3,10 0,19l9 -1c2,-8 -1,-14 -9,-18z"/>
   <path class="fil0" d="M1013 665c-1,9 -3,10 0,19l10 -1c1,-8 -2,-14 -10,-18z"/>
   <path class="fil0" d="M1013 895c-1,9 -3,9 0,18l10 0c1,-9 -2,-14 -10,-18z"/>
   <path class="fil0" d="M670 665c-1,9 -2,10 1,19l9 -1c2,-8 -1,-14 -10,-18z"/>
   <path class="fil0" d="M670 895c-1,9 -2,9 1,18l9 0c2,-9 -1,-14 -10,-18z"/>
   <path class="fil0" d="M785 895c-2,9 -3,9 0,18l9 0c2,-9 -1,-14 -9,-18z"/>
   <path class="fil0" d="M899 1010c-1,8 -3,9 0,18l9 0c2,-9 -1,-15 -9,-18z"/>
   <path class="fil0" d="M1013 780c-1,9 -3,9 0,18l10 0c1,-8 -2,-14 -10,-18z"/>
   <path class="fil0" d="M670 1010c-1,8 -2,9 1,18l9 0c2,-9 -1,-15 -10,-18z"/>
   <path class="fil0" d="M785 1010c-2,8 -3,9 0,18l9 0c2,-9 -1,-15 -9,-18z"/>
   <path class="fil0" d="M899 895c-1,9 -3,9 0,18l9 0c2,-9 -1,-14 -9,-18z"/>
   <path class="fil0" d="M899 780c-1,9 -3,9 0,18l9 0c2,-8 -1,-14 -9,-18z"/>
   <path class="fil0" d="M785 780c-2,9 -3,9 0,18l9 0c2,-8 -1,-14 -9,-18z"/>
   <path class="fil0" d="M670 780c-1,9 -2,9 1,18l9 0c2,-8 -1,-14 -10,-18z"/>
   <path class="fil0" d="M99 550c-1,9 -3,10 0,19l9 0c2,-9 -1,-15 -9,-19z"/>
   <path class="fil0" d="M99 435c-1,9 -3,10 0,19l9 0c2,-9 -1,-15 -9,-19z"/>
   <path class="fil0" d="M1143 146l0 -26c-6,4 -10,15 -8,22l8 4z"/>
   <path class="fil0" d="M213 550c-1,9 -3,10 0,19l10 0c1,-9 -2,-15 -10,-19z"/>
   <path class="fil0" d="M213 435c-1,9 -3,10 0,19l10 0c1,-9 -2,-15 -10,-19z"/>
   <path class="fil0" d="M1143 376l0 -26c-6,4 -10,15 -8,22l8 4z"/>
   <path class="fil0" d="M99 895c-1,9 -3,9 0,18l9 0c2,-9 -1,-14 -9,-18z"/>
   <path class="fil0" d="M99 1010c-1,8 -3,9 0,18l9 0c2,-9 -1,-15 -9,-18z"/>
   <path class="fil0" d="M99 665c-1,9 -3,10 0,19l9 -1c2,-8 -1,-14 -9,-18z"/>
   <path class="fil0" d="M99 780c-1,9 -3,9 0,18l9 0c2,-8 -1,-14 -9,-18z"/>
   <path class="fil0" d="M671 338l9 2c1,-11 -1,-15 -10,-20 -1,9 -2,10 1,18z"/>
   <path class="fil0" d="M785 338l9 2c2,-11 -1,-15 -9,-20 -2,9 -3,10 0,18z"/>
   <path class="fil0" d="M899 338l10 2c1,-11 -2,-15 -10,-20 -2,9 -3,10 0,18z"/>
   <path class="fil0" d="M1013 338l10 2c1,-11 -2,-15 -10,-20 -1,9 -2,10 0,18z"/>
   <path class="fil0" d="M1143 32l0 -27c-6,4 -10,15 -8,22l8 5z"/>
   <path class="fil0" d="M327 550c-1,9 -2,10 1,19l9 0c2,-9 -1,-15 -10,-19z"/>
   <path class="fil0" d="M442 550c-2,9 -3,10 0,19l9 0c2,-9 -1,-15 -9,-19z"/>
   <path class="fil0" d="M556 550c-1,9 -3,10 0,19l9 0c2,-9 -1,-15 -9,-19z"/>
   <path class="fil0" d="M442 435c-2,9 -3,10 0,19l9 0c2,-9 -1,-15 -9,-19z"/>
   <path class="fil0" d="M327 435c-1,9 -2,10 1,19l9 0c2,-9 -1,-15 -10,-19z"/>
   <path class="fil0" d="M556 435c-1,9 -3,10 0,19l9 0c2,-9 -1,-15 -9,-19z"/>
   <path class="fil0" d="M213 1010c-1,9 -3,9 1,18l9 0c1,-9 -2,-15 -10,-18z"/>
   <path class="fil0" d="M213 895c-1,9 -3,9 1,18l9 0c1,-9 -2,-14 -10,-18z"/>
   <path class="fil0" d="M213 780c-1,9 -3,9 1,18l9 0c1,-8 -2,-14 -10,-18z"/>
   <path class="fil0" d="M213 665c-1,9 -3,9 1,19l9 -1c1,-8 -2,-14 -10,-18z"/>
   <path class="fil0" d="M156 493c-2,9 -3,9 1,18l8 0c2,-9 -1,-14 -9,-18z"/>
   <path class="fil0" d="M270 493c-1,9 -2,9 1,18l9 0c2,-9 -1,-14 -10,-18z"/>
   <path class="fil0" d="M499 396l9 1c2,-10 -1,-15 -9,-19 -2,9 -3,9 0,18z"/>
   <path class="fil0" d="M385 396l9 1c2,-10 -1,-15 -9,-19 -2,9 -3,9 0,18z"/>
   <path class="fil0" d="M499 281l9 1c2,-10 -1,-14 -9,-19 -2,9 -3,9 0,18z"/>
   <path class="fil0" d="M385 281l9 1c2,-10 -1,-14 -9,-19 -2,9 -3,9 0,18z"/>
   <path class="fil0" d="M956 51l9 2c3,-11 -1,-15 -9,-20 -1,9 -2,10 0,18z"/>
   <path class="fil0" d="M1071 51l9 2c2,-11 -2,-15 -10,-20 -1,9 -2,10 1,18z"/>
   <path class="fil0" d="M728 51l9 2c2,-11 -1,-15 -10,-20 -1,9 -2,10 1,18z"/>
   <path class="fil0" d="M613 51l9 2c3,-11 -1,-15 -9,-20 -1,9 -2,10 0,18z"/>
   <path class="fil0" d="M842 51l9 2c2,-11 -1,-15 -9,-20 -2,9 -3,10 0,18z"/>
   <path class="fil0" d="M156 281l9 1c3,-10 -1,-14 -9,-19 -1,9 -2,9 0,18z"/>
   <path class="fil0" d="M271 281l9 1c2,-10 -2,-14 -10,-19 -1,9 -2,9 1,18z"/>
   <path class="fil0" d="M156 166l9 1c3,-10 -1,-14 -9,-19 -1,9 -2,10 0,18z"/>
   <path class="fil0" d="M271 166l9 1c2,-10 -2,-14 -10,-19 -1,9 -2,10 1,18z"/>
   <path class="fil0" d="M385 166l9 1c2,-10 -1,-14 -9,-19 -2,9 -3,10 0,18z"/>
   <path class="fil0" d="M499 166l9 1c2,-10 -1,-14 -9,-19 -2,9 -3,10 0,18z"/>
   <path class="fil0" d="M727 723c-1,9 -2,9 1,18l9 0c2,-9 -1,-15 -10,-18z"/>
   <path class="fil0" d="M842 723c-2,9 -3,9 0,18l9 0c2,-9 -1,-15 -9,-18z"/>
   <path class="fil0" d="M956 396l9 1c3,-10 -1,-14 -9,-19 -1,9 -2,9 0,18z"/>
   <path class="fil0" d="M842 396l9 1c2,-10 -1,-14 -9,-19 -2,9 -3,9 0,18z"/>
   <path class="fil0" d="M1071 396l9 1c2,-10 -2,-14 -10,-19 -1,9 -2,9 1,18z"/>
   <path class="fil0" d="M728 396l9 1c2,-10 -1,-14 -10,-19 -1,9 -2,9 1,18z"/>
   <path class="fil0" d="M613 396l9 1c3,-10 -1,-14 -9,-19 -1,9 -2,9 0,18z"/>
   <path class="fil0" d="M42 396l9 1c2,-10 -1,-15 -9,-19 -2,9 -3,9 0,18z"/>
   <path class="fil0" d="M1071 281l9 1c2,-10 -2,-14 -10,-19 -1,9 -2,9 1,18z"/>
   <path class="fil0" d="M728 281l9 1c2,-10 -1,-14 -10,-19 -1,9 -2,9 1,18z"/>
   <path class="fil0" d="M842 281l9 1c2,-10 -1,-14 -9,-19 -2,9 -3,9 0,18z"/>
   <path class="fil0" d="M956 281l9 1c3,-10 -1,-14 -9,-19 -1,9 -2,9 0,18z"/>
   <path class="fil0" d="M613 281l9 1c3,-10 -1,-14 -9,-19 -1,9 -2,9 0,18z"/>
   <path class="fil0" d="M842 166l9 1c2,-10 -1,-14 -9,-19 -2,9 -3,10 0,18z"/>
   <path class="fil0" d="M728 166l9 1c2,-10 -1,-14 -10,-19 -1,9 -2,10 1,18z"/>
   <path class="fil0" d="M956 166l9 1c3,-10 -1,-14 -9,-19 -1,9 -2,10 0,18z"/>
   <path class="fil0" d="M42 51l9 2c2,-11 -1,-15 -9,-20 -2,9 -3,10 0,18z"/>
   <path class="fil0" d="M747 164c12,-6 4,-17 -3,-19 -4,7 -4,16 3,19z"/>
   <path class="fil0" d="M976 164c11,-6 4,-17 -4,-19 -4,7 -4,16 4,19z"/>
   <path class="fil0" d="M861 164c12,-6 5,-17 -3,-19 -4,7 -4,16 3,19z"/>
   <path class="fil0" d="M156 51l9 2c2,-11 -1,-15 -9,-20 -1,9 -2,10 0,18z"/>
   <path class="fil0" d="M271 51l9 2c2,-11 -2,-15 -10,-20 -1,9 -2,10 1,18z"/>
   <path class="fil0" d="M1014 223l8 2c3,-10 -1,-15 -9,-19 -1,8 -2,9 1,17z"/>
   <path class="fil0" d="M671 223l9 2c2,-10 -2,-15 -10,-19 -1,8 -2,9 1,17z"/>
   <path class="fil0" d="M785 223l9 2c2,-10 -1,-15 -9,-19 -2,8 -3,9 0,17z"/>
   <path class="fil0" d="M899 223l9 2c2,-10 -1,-15 -9,-19 -2,8 -3,9 0,17z"/>
   <path class="fil0" d="M1128 223l9 2c2,-10 -1,-15 -10,-19 -1,8 -2,9 1,17z"/>
   <path class="fil0" d="M633 394c11,-6 4,-17 -3,-19 -5,6 -5,15 3,19z"/>
   <path class="fil0" d="M747 394c12,-6 4,-17 -3,-19 -4,6 -4,15 3,19z"/>
   <path class="fil0" d="M861 394c12,-6 5,-17 -3,-19 -4,6 -4,15 3,19z"/>
   <path class="fil0" d="M1090 394c12,-6 4,-17 -3,-19 -5,6 -4,15 3,19z"/>
   <path class="fil0" d="M976 394c11,-6 4,-17 -4,-19 -4,6 -4,15 4,19z"/>
   <path class="fil0" d="M61 49c12,-6 5,-17 -3,-18 -4,6 -4,15 3,18z"/>
   <path class="fil0" d="M1128 338l9 2c2,-10 -1,-15 -10,-20 -1,9 -2,10 1,18z"/>
   <path class="fil0" d="M290 164c12,-6 4,-17 -3,-19 -5,7 -5,16 3,19z"/>
   <path class="fil0" d="M99 109l9 1c2,-10 -1,-15 -9,-19 -2,9 -3,9 0,18z"/>
   <path class="fil0" d="M99 338l9 2c2,-10 -1,-15 -9,-20 -2,9 -3,10 0,18z"/>
   <path class="fil0" d="M176 164c11,-6 4,-17 -4,-19 -4,7 -4,16 4,19z"/>
   <path class="fil0" d="M518 164c12,-6 5,-17 -3,-19 -4,7 -4,16 3,19z"/>
   <path class="fil0" d="M404 164c12,-6 4,-17 -3,-19 -4,7 -4,16 3,19z"/>
   <path class="fil0" d="M976 279c11,-6 4,-17 -4,-19 -4,6 -4,15 4,19z"/>
   <path class="fil0" d="M747 279c12,-6 4,-17 -3,-19 -4,6 -4,15 3,19z"/>
   <path class="fil0" d="M633 279c11,-6 4,-17 -3,-19 -5,6 -5,15 3,19z"/>
   <path class="fil0" d="M861 279c12,-6 5,-17 -3,-19 -4,6 -4,15 3,19z"/>
   <path class="fil0" d="M1090 279c12,-6 4,-17 -3,-19 -5,6 -4,15 3,19z"/>
   <path class="fil0" d="M518 393c12,-5 5,-16 -3,-18 -4,6 -4,15 3,18z"/>
   <path class="fil0" d="M404 393c12,-5 4,-16 -3,-18 -4,6 -4,15 3,18z"/>
   <path class="fil0" d="M290 279c12,-6 4,-17 -3,-19 -5,6 -4,15 3,19z"/>
   <path class="fil0" d="M690 221c12,-6 4,-17 -3,-18 -5,6 -4,15 3,18z"/>
   <path class="fil0" d="M804 221c12,-6 4,-17 -3,-18 -4,6 -4,15 3,18z"/>
   <path class="fil0" d="M918 221c12,-6 5,-17 -3,-18 -4,6 -4,15 3,18z"/>
   <path class="fil0" d="M1033 221c11,-6 4,-17 -3,-18 -5,6 -5,15 3,18z"/>
   <path class="fil0" d="M328 223l9 2c2,-10 -1,-15 -10,-19 -1,8 -2,9 1,17z"/>
   <path class="fil0" d="M556 223l9 2c2,-10 -1,-15 -9,-19 -1,8 -3,9 0,17z"/>
   <path class="fil0" d="M442 223l9 2c2,-10 -1,-15 -9,-19 -2,8 -3,9 0,17z"/>
   <path class="fil0" d="M213 338l9 2c3,-11 -1,-15 -9,-20 -1,9 -2,10 0,18z"/>
   <path class="fil0" d="M99 223l9 2c2,-10 -1,-15 -9,-19 -1,8 -3,9 0,17z"/>
   <path class="fil0" d="M176 279c11,-6 4,-17 -4,-19 -4,6 -4,15 4,19z"/>
   <path class="fil0" d="M213 109l9 1c3,-10 -1,-15 -9,-19 -1,8 -2,9 0,18z"/>
   <path class="fil0" d="M518 279c12,-6 5,-17 -3,-19 -4,6 -4,15 3,19z"/>
   <path class="fil0" d="M404 279c12,-6 4,-17 -3,-19 -4,6 -4,15 3,19z"/>
   <path class="fil0" d="M118 336c12,-6 5,-17 -3,-18 -4,6 -4,15 3,18z"/>
   <path class="fil0" d="M328 338l9 2c2,-11 -2,-15 -10,-20 -1,9 -2,10 1,18z"/>
   <path class="fil0" d="M556 338l9 2c3,-11 -1,-15 -9,-20 -1,9 -3,10 0,18z"/>
   <path class="fil0" d="M442 338l9 2c2,-11 -1,-15 -9,-20 -2,9 -3,10 0,18z"/>
   <path class="fil0" d="M1128 109l9 1c2,-10 -1,-15 -10,-19 -1,9 -2,9 1,18z"/>
   <path class="fil0" d="M118 106c12,-5 5,-16 -3,-18 -4,6 -4,15 3,18z"/>
   <path class="fil0" d="M247 348c13,1 12,-11 6,-17 -9,4 -9,8 -6,17z"/>
   <path class="fil0" d="M157 396l8 1c3,-10 -1,-14 -9,-19 -2,9 -3,9 1,18z"/>
   <path class="fil0" d="M271 396l9 1c2,-10 -2,-14 -10,-19 -1,9 -2,9 1,18z"/>
   <path class="fil0" d="M614 166l8 1c3,-10 -1,-14 -9,-19 -1,9 -2,9 1,18z"/>
   <path class="fil0" d="M1071 166l9 1c2,-10 -2,-14 -10,-19 -1,9 -2,9 1,18z"/>
   <path class="fil0" d="M785 109l9 1c2,-10 -1,-15 -9,-19 -2,9 -3,9 0,18z"/>
   <path class="fil0" d="M899 109l9 1c2,-10 -1,-15 -9,-19 -1,9 -3,9 0,18z"/>
   <path class="fil0" d="M1014 109l8 1c3,-10 -1,-15 -9,-19 -1,9 -2,9 1,18z"/>
   <path class="fil0" d="M671 109l9 1c2,-10 -2,-15 -10,-19 -1,9 -2,9 1,18z"/>
   <path class="fil0" d="M42 166l9 1c2,-10 -1,-14 -9,-19 -2,9 -3,9 0,18z"/>
   <path class="fil0" d="M42 281l9 1c2,-10 -1,-14 -9,-19 -2,9 -3,9 0,18z"/>
   <path class="fil0" d="M556 666c-2,8 -2,9 0,18l9 -1c2,-9 -1,-14 -9,-17z"/>
   <path class="fil0" d="M247 233c13,1 12,-10 6,-17 -9,4 -10,8 -6,17z"/>
   <path class="fil0" d="M590 347c13,2 12,-9 6,-16 -9,4 -10,8 -6,16z"/>
   <path class="fil0" d="M209 0l-9 0c3,9 2,16 13,15l4 -5 -8 -10z"/>
   <path class="fil0" d="M475 118c14,2 13,-10 6,-17 -8,4 -9,8 -6,17z"/>
   <path class="fil0" d="M361 118c13,2 12,-10 6,-17 -8,4 -9,8 -6,17z"/>
   <path class="fil0" d="M41 740c7,3 5,3 11,0 0,-6 -3,-18 -11,-17l0 17z"/>
   <path class="fil0" d="M41 855c7,3 5,3 11,0 0,-6 -3,-18 -11,-17l0 17z"/>
   <path class="fil0" d="M41 1084c7,3 5,4 11,0 0,-6 -3,-17 -11,-16l0 16z"/>
   <path class="fil0" d="M41 970c7,3 5,3 11,-1 0,-5 -3,-17 -11,-16l0 17z"/>
   <path class="fil0" d="M41 625c7,3 5,3 11,0 0,-6 -3,-17 -11,-16l0 16z"/>
   <path class="fil0" d="M95 0l-9 0c2,9 2,16 12,15l4 -5 -7 -10z"/>
   <path class="fil0" d="M18 118c13,2 12,-10 6,-17 -8,4 -9,8 -6,17z"/>
   <path class="fil0" d="M18 347c13,2 12,-9 6,-16 -8,4 -9,8 -6,16z"/>
   <path class="fil0" d="M304 405c13,2 12,-10 6,-17 -8,4 -10,8 -6,17z"/>
   <path class="fil0" d="M647 405c13,2 12,-10 6,-17 -9,4 -10,8 -6,17z"/>
   <path class="fil0" d="M875 405c13,2 13,-10 6,-17 -8,4 -9,8 -6,17z"/>
   <path class="fil0" d="M761 405c13,2 12,-10 6,-17 -8,4 -9,8 -6,17z"/>
   <path class="fil0" d="M990 405c13,2 12,-10 6,-17 -9,4 -10,8 -6,17z"/>
   <path class="fil0" d="M1104 405c13,2 12,-10 6,-17 -8,4 -10,8 -6,17z"/>
   <path class="fil0" d="M418 60c14,2 12,-10 6,-17 -8,5 -9,9 -6,17z"/>
   <path class="fil0" d="M532 60c14,2 13,-10 6,-17 -8,5 -9,9 -6,17z"/>
   <path class="fil0" d="M475 347c14,2 13,-10 6,-16 -8,4 -9,8 -6,16z"/>
   <path class="fil0" d="M361 347c13,2 12,-10 6,-16 -8,4 -9,8 -6,16z"/>
   <path class="fil0" d="M875 175c14,2 13,-10 6,-17 -8,4 -9,9 -6,17z"/>
   <path class="fil0" d="M761 175c13,2 12,-10 6,-17 -8,4 -9,9 -6,17z"/>
   <path class="fil0" d="M990 175c13,2 12,-10 6,-17 -9,4 -10,9 -6,17z"/>
   <path class="fil0" d="M875 290c13,2 13,-10 6,-17 -8,4 -9,8 -6,17z"/>
   <path class="fil0" d="M761 290c13,2 12,-10 6,-17 -8,4 -9,8 -6,17z"/>
   <path class="fil0" d="M647 290c13,2 12,-10 6,-17 -9,4 -10,8 -6,17z"/>
   <path class="fil0" d="M1104 290c13,2 12,-10 6,-17 -8,4 -10,8 -6,17z"/>
   <path class="fil0" d="M990 290c13,2 12,-10 6,-17 -9,4 -10,8 -6,17z"/>
   <path class="fil0" d="M704 233c13,2 12,-10 6,-17 -8,4 -10,8 -6,17z"/>
   <path class="fil0" d="M1047 233c13,2 12,-10 6,-17 -9,4 -10,8 -6,17z"/>
   <path class="fil0" d="M932 233c14,2 13,-10 6,-17 -8,4 -9,8 -6,17z"/>
   <path class="fil0" d="M818 233c13,2 12,-10 6,-17 -8,4 -9,8 -6,17z"/>
   <path class="fil0" d="M18 233c13,2 12,-10 6,-17 -8,4 -9,8 -6,17z"/>
   <path class="fil0" d="M132 118c14,2 13,-10 6,-17 -8,4 -9,8 -6,17z"/>
   <path class="fil0" d="M761 60c13,2 12,-10 6,-17 -8,5 -9,9 -6,17z"/>
   <path class="fil0" d="M647 60c13,2 12,-10 6,-17 -9,5 -10,9 -6,17z"/>
   <path class="fil0" d="M875 60c14,2 13,-10 6,-17 -8,5 -9,9 -6,17z"/>
   <path class="fil0" d="M990 60c13,2 12,-10 6,-17 -9,5 -10,9 -6,17z"/>
   <path class="fil0" d="M1104 60c13,2 12,-10 6,-17 -8,5 -10,9 -6,17z"/>
   <path class="fil0" d="M190 290c13,2 12,-10 6,-17 -9,4 -10,8 -6,17z"/>
   <path class="fil0" d="M75 290c14,2 13,-10 6,-17 -8,4 -9,8 -6,17z"/>
   <path class="fil0" d="M75 175c14,2 13,-10 6,-17 -8,5 -9,9 -6,17z"/>
   <path class="fil0" d="M62 738c10,-7 5,-16 -4,-19 -5,7 -4,14 4,19z"/>
   <path class="fil0" d="M62 853c10,-8 5,-16 -4,-19 -5,7 -4,14 4,19z"/>
   <path class="fil0" d="M62 1082c10,-7 5,-15 -4,-18 -5,7 -4,14 4,18z"/>
   <path class="fil0" d="M62 968c10,-8 5,-16 -4,-19 -5,7 -4,14 4,19z"/>
   <path class="fil0" d="M62 623c10,-7 5,-16 -4,-19 -5,8 -4,14 4,19z"/>
   <path class="fil0" d="M75 405c13,2 13,-10 6,-17 -8,4 -9,8 -6,17z"/>
   <path class="fil0" d="M214 223l8 2c3,-10 -1,-15 -9,-19 -1,9 -2,9 1,17z"/>
   <path class="fil0" d="M532 290c14,2 13,-10 6,-17 -8,4 -9,8 -6,17z"/>
   <path class="fil0" d="M418 290c13,2 12,-10 6,-17 -8,4 -9,8 -6,17z"/>
   <path class="fil0" d="M304 290c13,2 12,-10 6,-17 -8,4 -10,8 -6,17z"/>
   <path class="fil0" d="M132 347c14,2 13,-9 6,-16 -8,4 -9,8 -6,16z"/>
   <path class="fil0" d="M190 175c13,2 12,-10 6,-17 -9,5 -10,9 -6,17z"/>
   <path class="fil0" d="M517 1082c14,-3 7,-15 -2,-18 -5,7 -3,12 2,18z"/>
   <path class="fil0" d="M403 1082c13,-3 6,-15 -2,-18 -5,7 -4,12 2,18z"/>
   <path class="fil0" d="M517 623c14,-4 7,-16 -2,-18 -5,7 -3,12 2,18z"/>
   <path class="fil0" d="M517 967c14,-3 7,-15 -2,-18 -5,7 -3,12 2,18z"/>
   <path class="fil0" d="M403 738c13,-4 6,-16 -2,-18 -5,6 -4,11 2,18z"/>
   <path class="fil0" d="M517 738c14,-4 7,-16 -2,-18 -5,6 -3,11 2,18z"/>
   <path class="fil0" d="M403 853c13,-4 6,-16 -2,-18 -5,6 -4,11 2,18z"/>
   <path class="fil0" d="M403 967c13,-3 6,-15 -2,-18 -5,7 -4,12 2,18z"/>
   <path class="fil0" d="M517 853c14,-4 7,-16 -2,-18 -5,6 -3,11 2,18z"/>
   <path class="fil0" d="M403 623c13,-4 6,-16 -2,-18 -5,7 -4,12 2,18z"/>
   <path class="fil0" d="M532 405c14,2 13,-10 6,-17 -8,4 -9,8 -6,17z"/>
   <path class="fil0" d="M418 405c13,2 12,-10 6,-17 -8,4 -9,8 -6,17z"/>
   <path class="fil0" d="M189 60c14,2 13,-10 7,-17 -9,5 -10,9 -7,17z"/>
   <path class="fil0" d="M304 60c13,2 12,-10 6,-17 -8,5 -10,9 -6,17z"/>
   <path class="fil0" d="M174 853c14,-4 7,-16 -2,-18 -5,6 -3,11 2,18z"/>
   <path class="fil0" d="M174 623c14,-4 7,-16 -2,-18 -5,7 -3,12 2,18z"/>
   <path class="fil0" d="M174 967c14,-3 7,-15 -2,-18 -5,7 -3,12 2,18z"/>
   <path class="fil0" d="M174 738c14,-4 7,-16 -2,-18 -5,6 -3,11 2,18z"/>
   <path class="fil0" d="M174 1082c14,-3 7,-15 -2,-18 -5,7 -3,12 2,18z"/>
   <path class="fil0" d="M75 60c13,2 13,-10 6,-17 -8,5 -9,9 -6,17z"/>
   <path class="fil0" d="M862 738c10,-7 5,-16 -4,-19 -5,7 -4,14 4,19z"/>
   <path class="fil0" d="M747 738c10,-7 6,-16 -3,-19 -6,7 -4,14 3,19z"/>
   <path class="fil0" d="M304 175c13,2 12,-10 6,-17 -8,5 -10,9 -6,17z"/>
   <path class="fil0" d="M532 175c14,2 13,-10 6,-17 -8,5 -9,9 -6,17z"/>
   <path class="fil0" d="M418 175c13,2 12,-10 6,-17 -8,5 -9,9 -6,17z"/>
   <path class="fil0" d="M289 853c13,-4 6,-16 -2,-18 -6,6 -4,11 2,18z"/>
   <path class="fil0" d="M289 967c13,-3 6,-15 -2,-18 -6,7 -4,12 2,18z"/>
   <path class="fil0" d="M289 1082c13,-3 6,-15 -2,-18 -6,7 -4,12 2,18z"/>
   <path class="fil0" d="M289 738c13,-4 6,-16 -2,-18 -6,6 -4,11 2,18z"/>
   <path class="fil0" d="M289 623c13,-4 6,-16 -2,-18 -6,7 -4,12 2,18z"/>
   <path class="fil0" d="M557 109l8 1c2,-10 -1,-15 -9,-19 -1,9 -2,9 1,18z"/>
   <path class="fil0" d="M328 109l9 1c2,-10 -1,-15 -10,-19 -1,9 -2,9 1,18z"/>
   <path class="fil0" d="M442 109l9 1c2,-10 -1,-15 -9,-19 -2,9 -3,9 0,18z"/>
   <path class="fil0" d="M1104 175c13,2 12,-10 6,-16 -8,3 -9,8 -6,16z"/>
   <path class="fil0" d="M647 175c13,2 12,-10 6,-16 -9,3 -10,8 -6,16z"/>
   <path class="fil0" d="M1047 347c13,2 12,-10 6,-16 -9,4 -10,8 -6,16z"/>
   <path class="fil0" d="M818 347c13,2 12,-10 6,-16 -8,4 -9,8 -6,16z"/>
   <path class="fil0" d="M704 347c13,2 12,-10 6,-16 -8,4 -10,8 -6,16z"/>
   <path class="fil0" d="M933 347c13,2 12,-10 5,-16 -8,4 -9,8 -5,16z"/>
   <path class="fil0" d="M60 508c13,-3 6,-15 -2,-18 -5,7 -3,12 2,18z"/>
   <path class="fil0" d="M590 233c13,1 12,-11 6,-17 -9,4 -10,8 -6,17z"/>
   <path class="fil0" d="M590 118c13,2 12,-10 6,-17 -9,4 -10,8 -6,17z"/>
   <path class="fil0" d="M190 405c13,2 12,-10 6,-17 -9,4 -10,8 -6,17z"/>
   <path class="fil0" d="M133 233c13,2 12,-10 5,-17 -8,4 -9,8 -5,17z"/>
   <path class="fil0" d="M247 118c13,2 12,-10 6,-17 -9,4 -10,8 -6,17z"/>
   <path class="fil0" d="M233 795c10,-7 5,-16 -3,-18 -6,7 -4,13 3,18z"/>
   <path class="fil0" d="M233 680c10,-7 5,-15 -3,-18 -6,7 -4,14 3,18z"/>
   <path class="fil0" d="M233 910c10,-7 5,-16 -3,-18 -6,7 -4,13 3,18z"/>
   <path class="fil0" d="M233 1025c10,-7 5,-16 -3,-19 -6,8 -4,14 3,19z"/>
   <path class="fil0" d="M119 1025c9,-7 6,-15 -4,-19 -5,8 -4,14 4,19z"/>
   <path class="fil0" d="M119 795c9,-7 6,-14 -4,-18 -5,7 -4,13 4,18z"/>
   <path class="fil0" d="M119 910c9,-7 6,-15 -4,-18 -5,7 -4,13 4,18z"/>
   <path class="fil0" d="M119 680c9,-7 6,-14 -4,-18 -5,7 -4,14 4,18z"/>
   <path class="fil0" d="M805 680c9,-7 5,-14 -4,-18 -5,7 -4,14 4,18z"/>
   <path class="fil0" d="M919 1025c10,-7 6,-15 -4,-19 -5,8 -4,14 4,19z"/>
   <path class="fil0" d="M1033 1025c10,-7 6,-15 -3,-19 -6,8 -4,14 3,19z"/>
   <path class="fil0" d="M1033 795c10,-7 6,-14 -3,-18 -6,7 -4,13 3,18z"/>
   <path class="fil0" d="M919 795c10,-7 6,-14 -4,-18 -5,7 -4,13 4,18z"/>
   <path class="fil0" d="M690 795c10,-7 6,-14 -3,-18 -6,7 -4,13 3,18z"/>
   <path class="fil0" d="M690 910c10,-7 6,-15 -3,-18 -6,7 -4,13 3,18z"/>
   <path class="fil0" d="M805 910c9,-7 5,-15 -4,-18 -5,7 -4,13 4,18z"/>
   <path class="fil0" d="M919 910c10,-7 6,-15 -4,-18 -5,7 -4,13 4,18z"/>
   <path class="fil0" d="M1033 910c10,-7 6,-15 -3,-18 -6,7 -4,13 3,18z"/>
   <path class="fil0" d="M805 795c9,-7 5,-14 -4,-18 -5,7 -4,13 4,18z"/>
   <path class="fil0" d="M690 680c10,-7 6,-14 -3,-18 -6,7 -4,14 3,18z"/>
   <path class="fil0" d="M1033 680c10,-7 6,-14 -3,-18 -6,7 -4,14 3,18z"/>
   <path class="fil0" d="M919 680c10,-7 6,-14 -4,-18 -5,7 -4,14 4,18z"/>
   <path class="fil0" d="M690 1025c10,-7 6,-15 -3,-19 -6,8 -4,14 3,19z"/>
   <path class="fil0" d="M805 1025c9,-7 5,-15 -4,-19 -5,8 -4,14 4,19z"/>
   <path class="fil0" d="M323 0l-8 0c2,8 7,25 16,9l-8 -9z"/>
   <path class="fil0" d="M552 0l-9 0c2,8 8,25 16,9l-7 -9z"/>
   <path class="fil0" d="M437 0l-8 0c2,8 7,25 16,9l-8 -9z"/>
   <path class="fil0" d="M704 118c13,2 12,-10 6,-17 -9,4 -10,8 -6,17z"/>
   <path class="fil0" d="M818 118c13,2 13,-10 6,-17 -8,4 -9,8 -6,17z"/>
   <path class="fil0" d="M933 118c12,2 12,-10 5,-17 -8,4 -9,8 -5,17z"/>
   <path class="fil0" d="M1047 118c13,2 12,-10 6,-17 -9,4 -10,8 -6,17z"/>
   <path class="fil0" d="M119 451c10,-7 5,-16 -4,-19 -5,7 -4,14 4,19z"/>
   <path class="fil0" d="M119 566c10,-8 5,-16 -4,-19 -5,7 -4,14 4,19z"/>
   <path class="fil0" d="M576 566c10,-8 5,-16 -4,-19 -5,7 -3,14 4,19z"/>
   <path class="fil0" d="M176 508c10,-7 5,-16 -4,-18 -5,7 -3,13 4,18z"/>
   <path class="fil0" d="M233 566c10,-8 5,-16 -3,-19 -6,7 -4,14 3,19z"/>
   <path class="fil0" d="M233 451c10,-7 5,-16 -3,-19 -6,7 -4,14 3,19z"/>
   <path class="fil0" d="M361 233c13,1 12,-10 6,-17 -8,4 -9,8 -6,17z"/>
   <path class="fil0" d="M475 233c13,1 13,-10 6,-17 -8,4 -9,8 -6,17z"/>
   <path class="fil0" d="M462 566c9,-8 5,-16 -4,-19 -6,7 -4,14 4,19z"/>
   <path class="fil0" d="M347 566c10,-8 6,-16 -3,-19 -6,7 -4,14 3,19z"/>
   <path class="fil0" d="M290 508c10,-7 6,-16 -3,-18 -6,7 -4,14 3,18z"/>
   <path class="fil0" d="M692 336c6,-9 3,-16 -5,-18 -5,7 -5,15 5,18z"/>
   <path class="fil0" d="M1035 336c6,-9 3,-16 -5,-18 -6,7 -5,15 5,18z"/>
   <path class="fil0" d="M921 336c6,-9 3,-16 -6,-18 -5,7 -4,15 6,18z"/>
   <path class="fil0" d="M807 336c5,-9 3,-16 -6,-18 -5,7 -4,15 6,18z"/>
   <path class="fil0" d="M290 393c10,-7 6,-15 -3,-18 -5,7 -4,14 3,18z"/>
   <path class="fil0" d="M519 49c10,-8 5,-16 -4,-18 -5,7 -4,13 4,18z"/>
   <path class="fil0" d="M405 49c9,-8 5,-16 -4,-18 -5,7 -4,13 4,18z"/>
   <path class="fil0" d="M62 278c9,-7 5,-15 -4,-18 -5,8 -4,14 4,18z"/>
   <path class="fil0" d="M1090 164c11,-8 4,-17 -3,-19 -5,8 -4,14 3,19z"/>
   <path class="fil0" d="M633 164c10,-8 4,-17 -3,-19 -5,8 -4,14 3,19z"/>
   <path class="fil0" d="M233 106c10,-7 5,-15 -3,-18 -6,7 -4,14 3,18z"/>
   <path class="fil0" d="M119 221c10,-7 5,-15 -4,-18 -5,7 -4,13 4,18z"/>
   <path class="fil0" d="M805 106c10,-7 4,-16 -4,-18 -5,7 -4,14 4,18z"/>
   <path class="fil0" d="M919 106c10,-7 4,-16 -4,-18 -5,7 -3,14 4,18z"/>
   <path class="fil0" d="M1033 106c10,-7 4,-16 -3,-18 -6,7 -4,14 3,18z"/>
   <path class="fil0" d="M690 106c11,-7 4,-16 -3,-18 -5,7 -4,14 3,18z"/>
   <path class="fil0" d="M233 221c10,-7 4,-16 -3,-18 -6,7 -4,13 3,18z"/>
   <path class="fil0" d="M62 164c10,-8 4,-17 -4,-19 -5,8 -4,14 4,19z"/>
   <path class="fil0" d="M176 393c10,-7 4,-16 -4,-18 -5,7 -3,14 4,18z"/>
   <path class="fil0" d="M576 221c10,-7 4,-16 -4,-18 -5,7 -3,13 4,18z"/>
   <path class="fil0" d="M347 106c11,-7 4,-16 -3,-18 -5,7 -4,14 3,18z"/>
   <path class="fil0" d="M576 106c10,-7 4,-16 -4,-18 -5,7 -3,14 4,18z"/>
   <path class="fil0" d="M462 106c10,-7 4,-16 -4,-18 -5,7 -4,14 4,18z"/>
   <path class="fil0" d="M576 451c10,-8 4,-17 -4,-19 -5,8 -3,14 4,19z"/>
   <path class="fil0" d="M576 336c10,-8 4,-17 -4,-18 -5,7 -3,13 4,18z"/>
   <path class="fil0" d="M462 221c10,-7 4,-16 -4,-18 -5,7 -4,13 4,18z"/>
   <path class="fil0" d="M347 221c11,-7 4,-16 -3,-18 -5,7 -4,13 3,18z"/>
   <path class="fil0" d="M233 336c10,-8 4,-17 -3,-18 -6,7 -4,13 3,18z"/>
   <path class="fil0" d="M462 451c10,-8 4,-16 -4,-18 -5,7 -3,13 4,18z"/>
   <path class="fil0" d="M347 451c10,-8 5,-16 -3,-18 -5,7 -4,13 3,18z"/>
   <path class="fil0" d="M347 336c10,-8 5,-16 -3,-18 -5,7 -4,13 3,18z"/>
   <path class="fil0" d="M462 336c10,-8 4,-16 -4,-18 -5,7 -3,13 4,18z"/>
   <path class="fil0" d="M289 49c13,-4 6,-17 -2,-18 -5,7 -4,11 2,18z"/>
   <path class="fil0" d="M631 49c14,-4 6,-17 -1,-18 -5,7 -4,11 1,18z"/>
   <path class="fil0" d="M746 49c14,-4 6,-17 -2,-18 -4,7 -4,11 2,18z"/>
   <path class="fil0" d="M860 49c14,-4 6,-17 -2,-18 -4,7 -3,11 2,18z"/>
   <path class="fil0" d="M974 49c14,-4 6,-17 -2,-18 -4,7 -3,11 2,18z"/>
   <path class="fil0" d="M1089 49c13,-4 5,-17 -2,-18 -5,7 -4,11 2,18z"/>
   <path class="fil0" d="M60 393c14,-3 6,-16 -2,-17 -4,6 -3,11 2,17z"/>
   <path class="fil0" d="M174 49l8 -4c0,-7 -3,-13 -10,-14 -4,7 -3,11 2,18z"/>
   <path class="fil0" d="M156 416c7,-9 -3,-14 -11,-14 -1,7 1,15 11,14z"/>
   <path class="fil0" d="M727 761c8,-10 -4,-15 -11,-14 -2,7 3,14 11,14z"/>
   <path class="fil0" d="M841 761c8,-10 -3,-15 -11,-14 -2,7 3,14 11,14z"/>
   <path class="fil0" d="M270 416c7,-9 -3,-14 -11,-14 -1,7 1,15 11,14z"/>
   <path class="fil0" d="M214 243c4,-9 -4,-13 -12,-13 -1,7 1,17 12,13z"/>
   <path class="fil0" d="M156 531c7,-9 -4,-15 -11,-13 -2,7 2,14 11,13z"/>
   <path class="fil0" d="M270 531c8,-9 -4,-15 -11,-13 -2,7 3,14 11,13z"/>
   <path class="fil0" d="M384 72c7,-10 -2,-14 -11,-14 -1,6 1,14 11,14z"/>
   <path class="fil0" d="M214 703c4,-10 -4,-14 -12,-13 -2,7 3,16 12,13z"/>
   <path class="fil0" d="M214 1047c4,-9 -4,-14 -12,-13 -2,8 3,16 12,13z"/>
   <path class="fil0" d="M214 932c4,-9 -4,-14 -12,-12 -2,7 3,15 12,12z"/>
   <path class="fil0" d="M214 817c4,-9 -4,-14 -12,-12 -2,7 3,15 12,12z"/>
   <path class="fil0" d="M0 106l10 -3c0,-11 -2,-11 -10,-17l0 20z"/>
   <path class="fil0" d="M901 355c-1,-8 -6,-10 -13,-10 -1,7 4,22 13,10z"/>
   <path class="fil0" d="M1016 355c-1,-8 -6,-10 -14,-10 -1,7 5,22 14,10z"/>
   <path class="fil0" d="M673 355c-1,-8 -6,-10 -14,-10 -1,7 5,22 14,10z"/>
   <path class="fil0" d="M787 355c-1,-8 -6,-10 -14,-10 -1,7 5,22 14,10z"/>
   <path class="fil0" d="M0 336l10 -3c0,-11 -2,-11 -10,-18l0 21z"/>
   <path class="fil0" d="M502 67c-3,-7 -7,-9 -14,-9 -2,9 7,23 14,9z"/>
   <path class="fil0" d="M558 127c1,-9 -5,-12 -13,-12 -1,7 3,20 13,12z"/>
   <path class="fil0" d="M329 127c1,-9 -5,-12 -13,-12 -1,7 3,20 13,12z"/>
   <path class="fil0" d="M444 127c1,-9 -5,-12 -14,-12 -1,7 3,20 14,12z"/>
   <path class="fil0" d="M0 221l10 -3c0,-11 -2,-11 -10,-17l0 20z"/>
   <path class="fil0" d="M101 242c1,-9 -5,-12 -14,-12 0,7 3,20 14,12z"/>
   <path class="fil0" d="M1015 127c1,-9 -5,-12 -13,-12 -1,7 3,20 13,12z"/>
   <path class="fil0" d="M787 127c0,-9 -6,-12 -14,-12 -1,7 3,20 14,12z"/>
   <path class="fil0" d="M672 127c1,-9 -5,-12 -13,-12 -1,7 3,20 13,12z"/>
   <path class="fil0" d="M901 127c1,-9 -5,-12 -13,-12 -1,7 2,20 13,12z"/>
   <path class="fil0" d="M558 357c1,-9 -5,-12 -13,-12 -1,7 3,19 13,12z"/>
   <path class="fil0" d="M444 357c1,-9 -6,-12 -14,-12 -1,7 3,19 14,12z"/>
   <path class="fil0" d="M329 357c1,-9 -5,-12 -13,-12 -1,7 3,19 13,12z"/>
   <path class="fil0" d="M215 127c1,-9 -5,-12 -13,-12 -1,7 3,20 13,12z"/>
   <path class="fil0" d="M787 928c-2,-6 -7,-10 -14,-9 -2,7 3,15 11,15l3 -6z"/>
   <path class="fil0" d="M1016 928c-3,-6 -7,-10 -14,-9 -2,7 3,15 11,15l3 -6z"/>
   <path class="fil0" d="M1016 813c-3,-6 -7,-10 -14,-8 -2,6 3,14 11,14l3 -6z"/>
   <path class="fil0" d="M901 813c-2,-6 -7,-10 -13,-8 -3,6 2,14 11,14l2 -6z"/>
   <path class="fil0" d="M673 813c-3,-6 -7,-10 -14,-8 -2,6 3,14 11,14l3 -6z"/>
   <path class="fil0" d="M1016 1043c-3,-7 -7,-10 -14,-9 -2,7 3,15 11,15l3 -6z"/>
   <path class="fil0" d="M787 1043c-2,-7 -7,-10 -14,-9 -2,7 3,15 11,15l3 -6z"/>
   <path class="fil0" d="M901 1043c-2,-7 -7,-10 -13,-9 -3,7 2,15 11,15l2 -6z"/>
   <path class="fil0" d="M673 1043c-3,-7 -7,-10 -14,-9 -2,7 3,15 11,15l3 -6z"/>
   <path class="fil0" d="M787 813c-2,-6 -7,-10 -14,-8 -2,6 3,14 11,14l3 -6z"/>
   <path class="fil0" d="M673 928c-3,-6 -7,-10 -14,-9 -2,7 3,15 11,15l3 -6z"/>
   <path class="fil0" d="M901 928c-2,-6 -7,-10 -13,-9 -3,7 2,15 11,15l2 -6z"/>
   <path class="fil0" d="M787 698c-2,-6 -7,-9 -14,-8 -2,7 3,14 11,14l3 -6z"/>
   <path class="fil0" d="M673 698c-3,-6 -7,-9 -14,-8 -2,7 3,14 11,14l3 -6z"/>
   <path class="fil0" d="M1016 698c-3,-6 -7,-9 -14,-8 -2,7 3,14 11,14l3 -6z"/>
   <path class="fil0" d="M901 698c-2,-6 -7,-9 -13,-8 -3,7 2,14 11,14l2 -6z"/>
   <path class="fil0" d="M559 241c-2,-8 -7,-11 -14,-11 -1,7 5,22 14,11z"/>
   <path class="fil0" d="M330 241c-1,-8 -6,-11 -14,-11 -1,7 5,22 14,11z"/>
   <path class="fil0" d="M444 241c-1,-8 -6,-11 -14,-11 -1,7 5,22 14,11z"/>
   <path class="fil0" d="M101 700c-1,-8 -6,-11 -13,-10 -3,7 6,20 13,10z"/>
   <path class="fil0" d="M101 1044c-1,-7 -6,-11 -13,-10 -3,8 6,20 13,10z"/>
   <path class="fil0" d="M101 815c-1,-8 -6,-12 -13,-10 -3,7 6,20 13,10z"/>
   <path class="fil0" d="M101 930c-1,-8 -6,-12 -13,-11 -3,8 6,20 13,11z"/>
   <path class="fil0" d="M44 298c-1,-8 -6,-10 -14,-11 -1,8 5,22 14,11z"/>
   <path class="fil0" d="M216 355c-2,-8 -6,-10 -14,-10 -1,7 5,22 14,10z"/>
   <path class="fil0" d="M612 187l4 -5c-3,-7 -7,-9 -14,-10 -1,7 1,14 10,15z"/>
   <path class="fil0" d="M1069 187l4 -5c-3,-7 -7,-9 -14,-10 -1,7 1,14 10,15z"/>
   <path class="fil0" d="M44 642c-1,-7 -6,-11 -13,-10 -3,8 5,21 13,10z"/>
   <path class="fil0" d="M44 757c-1,-7 -6,-11 -13,-10 -3,8 5,20 13,10z"/>
   <path class="fil0" d="M44 1102c-1,-8 -6,-11 -13,-10 -3,8 5,20 13,10z"/>
   <path class="fil0" d="M44 987c-1,-7 -6,-11 -13,-10 -3,8 5,20 13,10z"/>
   <path class="fil0" d="M44 872c-1,-7 -6,-11 -13,-10 -3,8 5,20 13,10z"/>
   <path class="fil0" d="M101 472c1,-9 -6,-13 -13,-12 -3,8 4,18 13,12z"/>
   <path class="fil0" d="M101 586c1,-8 -6,-12 -13,-11 -3,8 4,18 13,11z"/>
   <path class="fil0" d="M41 187l4 -5c-3,-7 -7,-9 -15,-10 -1,7 1,15 11,15z"/>
   <path class="fil0" d="M215 586c1,-8 -6,-12 -13,-11 -2,8 4,18 13,11z"/>
   <path class="fil0" d="M444 472c1,-9 -6,-13 -13,-12 -3,8 4,18 13,12z"/>
   <path class="fil0" d="M329 472c1,-9 -5,-13 -13,-12 -2,8 5,18 13,12z"/>
   <path class="fil0" d="M558 472c1,-9 -6,-13 -13,-12 -2,8 4,18 13,12z"/>
   <path class="fil0" d="M497 302l5 -5c-3,-7 -7,-9 -14,-10 -1,7 0,13 9,15z"/>
   <path class="fil0" d="M383 302l5 -5c-4,-7 -7,-9 -15,-10 -1,7 1,13 10,15z"/>
   <path class="fil0" d="M383 187l5 -5c-4,-7 -7,-9 -15,-10 -1,7 1,14 10,15z"/>
   <path class="fil0" d="M497 187l5 -5c-3,-7 -7,-9 -14,-10 -1,7 0,14 9,15z"/>
   <path class="fil0" d="M726 187l5 -5c-4,-7 -7,-9 -15,-10 -1,7 1,14 10,15z"/>
   <path class="fil0" d="M840 187l5 -5c-3,-7 -7,-9 -15,-10 0,7 1,14 10,15z"/>
   <path class="fil0" d="M954 187l5 -5c-3,-7 -7,-9 -14,-10 -1,7 0,14 9,15z"/>
   <path class="fil0" d="M1126 244l5 -5c-4,-7 -7,-9 -15,-9 -1,6 1,13 10,14z"/>
   <path class="fil0" d="M1011 244l5 -5c-3,-7 -7,-9 -14,-9 -1,6 0,13 9,14z"/>
   <path class="fil0" d="M668 244l5 -5c-3,-7 -7,-9 -14,-9 -1,6 1,13 9,14z"/>
   <path class="fil0" d="M783 244l5 -5c-4,-7 -7,-9 -15,-9 -1,6 1,13 10,14z"/>
   <path class="fil0" d="M897 244l5 -5c-3,-7 -7,-9 -14,-9 -1,6 0,13 9,14z"/>
   <path class="fil0" d="M559 583c-3,-6 -7,-9 -14,-8 -2,7 2,13 10,15l4 -7z"/>
   <path class="fil0" d="M330 583c-2,-6 -7,-9 -14,-8 -2,7 2,13 10,15l4 -7z"/>
   <path class="fil0" d="M444 583c-2,-6 -7,-9 -13,-8 -2,7 1,13 9,15l4 -7z"/>
   <path class="fil0" d="M611 302l5 -5c-3,-7 -7,-9 -14,-10 -1,7 0,13 9,15z"/>
   <path class="fil0" d="M1068 302l5 -5c-3,-7 -7,-9 -14,-10 -1,7 1,13 9,15z"/>
   <path class="fil0" d="M954 302l5 -5c-3,-7 -7,-9 -14,-10 -1,7 0,13 9,15z"/>
   <path class="fil0" d="M726 302l5 -5c-4,-7 -7,-9 -15,-10 -1,7 1,13 10,15z"/>
   <path class="fil0" d="M840 302l5 -5c-3,-7 -7,-9 -15,-10 0,7 1,13 10,15z"/>
   <path class="fil0" d="M40 417l5 -5c-3,-8 -7,-10 -15,-10 0,7 1,13 10,15z"/>
   <path class="fil0" d="M954 72l5 -5c-3,-7 -7,-9 -14,-9 -1,6 0,13 9,14z"/>
   <path class="fil0" d="M611 72l5 -5c-3,-7 -7,-9 -14,-9 -1,6 0,13 9,14z"/>
   <path class="fil0" d="M726 72l5 -5c-4,-7 -7,-9 -15,-9 -1,6 1,13 10,14z"/>
   <path class="fil0" d="M840 72l5 -5c-3,-7 -7,-9 -15,-9 0,6 1,13 10,14z"/>
   <path class="fil0" d="M1068 72l5 -5c-3,-7 -7,-9 -14,-9 -1,6 1,13 9,14z"/>
   <path class="fil0" d="M844 985c-2,-6 -7,-9 -14,-8 -2,7 3,13 10,14l4 -6z"/>
   <path class="fil0" d="M959 985c-3,-6 -7,-9 -14,-8 -2,7 2,13 10,14l4 -6z"/>
   <path class="fil0" d="M1073 985c-3,-6 -7,-9 -14,-8 -2,7 2,13 10,14l4 -6z"/>
   <path class="fil0" d="M1073 871c-3,-7 -7,-10 -14,-9 -2,7 2,13 10,15l4 -6z"/>
   <path class="fil0" d="M616 1100c-3,-6 -7,-9 -14,-8 -2,6 2,13 10,14l4 -6z"/>
   <path class="fil0" d="M730 1100c-3,-6 -7,-9 -14,-8 -2,6 2,13 10,14l4 -6z"/>
   <path class="fil0" d="M844 1100c-2,-6 -7,-9 -14,-8 -2,6 3,13 10,14l4 -6z"/>
   <path class="fil0" d="M959 1100c-3,-6 -7,-9 -14,-8 -2,6 2,13 10,14l4 -6z"/>
   <path class="fil0" d="M1073 1100c-3,-6 -7,-9 -14,-8 -2,6 2,13 10,14l4 -6z"/>
   <path class="fil0" d="M616 985c-3,-6 -7,-9 -14,-8 -2,7 2,13 10,14l4 -6z"/>
   <path class="fil0" d="M730 985c-3,-6 -7,-9 -14,-8 -2,7 2,13 10,14l4 -6z"/>
   <path class="fil0" d="M616 871c-3,-7 -7,-10 -14,-9 -2,7 2,13 10,15l4 -6z"/>
   <path class="fil0" d="M730 871c-3,-7 -7,-10 -14,-9 -2,7 2,13 10,15l4 -6z"/>
   <path class="fil0" d="M844 871c-2,-7 -7,-10 -14,-9 -2,7 3,13 10,15l4 -6z"/>
   <path class="fil0" d="M959 871c-3,-7 -7,-10 -14,-9 -2,7 2,13 10,15l4 -6z"/>
   <path class="fil0" d="M959 756c-3,-7 -7,-10 -14,-9 -2,7 2,13 10,15l4 -6z"/>
   <path class="fil0" d="M959 641c-3,-6 -7,-10 -14,-9 -2,7 2,13 10,15l4 -6z"/>
   <path class="fil0" d="M1073 756c-3,-7 -7,-10 -14,-9 -2,7 2,13 10,15l4 -6z"/>
   <path class="fil0" d="M730 641c-3,-6 -7,-10 -14,-9 -2,7 2,13 10,15l4 -6z"/>
   <path class="fil0" d="M844 641c-2,-6 -7,-10 -14,-9 -2,7 3,13 10,15l4 -6z"/>
   <path class="fil0" d="M616 756c-3,-7 -7,-10 -14,-9 -2,7 2,13 10,15l4 -6z"/>
   <path class="fil0" d="M616 641c-3,-6 -7,-10 -14,-9 -2,7 2,13 10,15l4 -6z"/>
   <path class="fil0" d="M1073 641c-3,-6 -7,-10 -14,-9 -2,7 2,13 10,15l4 -6z"/>
   <path class="fil0" d="M97 359l5 -5c-3,-7 -7,-9 -15,-9 0,6 1,13 10,14z"/>
   <path class="fil0" d="M268 72l5 -5c-3,-7 -7,-9 -14,-9 -1,6 1,13 9,14z"/>
   <path class="fil0" d="M154 187l5 -5c-3,-7 -7,-9 -14,-10 -1,7 0,14 9,15z"/>
   <path class="fil0" d="M273 985c-3,-6 -7,-9 -14,-8 -2,7 2,13 10,14l4 -6z"/>
   <path class="fil0" d="M273 871c-3,-7 -7,-10 -14,-9 -2,7 2,13 10,15l4 -6z"/>
   <path class="fil0" d="M273 1100c-3,-6 -7,-9 -14,-8 -2,6 2,13 10,14l4 -6z"/>
   <path class="fil0" d="M273 641c-3,-6 -7,-10 -14,-9 -2,7 2,13 10,15l4 -6z"/>
   <path class="fil0" d="M273 756c-3,-7 -7,-10 -14,-9 -2,7 2,13 10,15l4 -6z"/>
   <path class="fil0" d="M216 470c-1,-7 -7,-11 -14,-10 -2,8 6,20 14,10z"/>
   <path class="fil0" d="M154 72l5 -5c-3,-7 -7,-9 -14,-9 -1,6 0,13 9,14z"/>
   <path class="fil0" d="M40 72l5 -5c-3,-7 -7,-9 -15,-9 0,6 1,13 10,14z"/>
   <path class="fil0" d="M44 526c-2,-6 -7,-10 -14,-8 -2,6 3,12 10,14l4 -6z"/>
   <path class="fil0" d="M159 1100c-3,-6 -7,-9 -14,-8 -2,6 2,13 10,14l4 -6z"/>
   <path class="fil0" d="M159 985c-3,-6 -7,-9 -14,-8 -2,7 2,13 10,14l4 -6z"/>
   <path class="fil0" d="M159 871c-3,-7 -7,-10 -14,-9 -2,7 2,13 10,15l4 -6z"/>
   <path class="fil0" d="M159 641c-3,-6 -7,-10 -14,-9 -2,7 2,13 10,15l4 -6z"/>
   <path class="fil0" d="M159 756c-3,-7 -7,-10 -14,-9 -2,7 2,13 10,15l4 -6z"/>
   <path class="fil0" d="M268 187l5 -5c-3,-7 -7,-9 -14,-10 -1,7 1,14 9,15z"/>
   <path class="fil0" d="M97 130l5 -6c-3,-7 -7,-9 -15,-9 0,7 1,13 10,15z"/>
   <path class="fil0" d="M154 302l5 -5c-3,-7 -7,-9 -14,-10 -1,7 0,13 9,15z"/>
   <path class="fil0" d="M444 813c-2,-6 -7,-10 -14,-8 -2,6 3,12 10,14l4 -6z"/>
   <path class="fil0" d="M330 928c-3,-6 -7,-10 -14,-9 -2,7 2,13 10,15l4 -6z"/>
   <path class="fil0" d="M444 928c-2,-6 -7,-10 -14,-9 -2,7 3,13 10,15l4 -6z"/>
   <path class="fil0" d="M559 698c-3,-6 -7,-9 -14,-8 -2,6 2,13 10,14l4 -6z"/>
   <path class="fil0" d="M444 698c-2,-6 -7,-9 -14,-8 -2,6 3,13 10,14l4 -6z"/>
   <path class="fil0" d="M559 928c-3,-6 -7,-10 -14,-9 -2,7 2,13 10,15l4 -6z"/>
   <path class="fil0" d="M330 698c-3,-6 -7,-9 -14,-8 -2,6 2,13 10,14l4 -6z"/>
   <path class="fil0" d="M559 1043c-3,-7 -7,-10 -14,-9 -2,7 2,13 10,15l4 -6z"/>
   <path class="fil0" d="M444 1043c-2,-7 -7,-10 -14,-9 -2,7 3,13 10,15l4 -6z"/>
   <path class="fil0" d="M330 813c-3,-6 -7,-10 -14,-8 -2,6 2,12 10,14l4 -6z"/>
   <path class="fil0" d="M559 813c-3,-6 -7,-10 -14,-8 -2,6 2,12 10,14l4 -6z"/>
   <path class="fil0" d="M330 1043c-3,-7 -7,-10 -14,-9 -2,7 2,13 10,15l4 -6z"/>
   <path class="fil0" d="M954 417l5 -5c-3,-8 -7,-10 -14,-10 -1,7 0,13 9,15z"/>
   <path class="fil0" d="M840 417l5 -5c-3,-8 -7,-10 -15,-10 0,7 1,13 10,15z"/>
   <path class="fil0" d="M726 417l5 -5c-4,-8 -8,-10 -15,-10 -1,7 1,13 10,15z"/>
   <path class="fil0" d="M611 417l5 -5c-3,-8 -7,-10 -14,-10 -1,7 0,13 9,15z"/>
   <path class="fil0" d="M1068 417l5 -5c-3,-8 -7,-10 -14,-10 -1,7 1,13 9,15z"/>
   <path class="fil0" d="M268 302l5 -5c-3,-7 -7,-9 -14,-10 -1,7 1,13 9,15z"/>
   <path class="fil0" d="M501 641c-2,-6 -7,-10 -13,-9 -2,7 2,13 9,15l4 -6z"/>
   <path class="fil0" d="M387 756c-2,-7 -7,-10 -14,-9 -2,7 2,13 10,15l4 -6z"/>
   <path class="fil0" d="M387 985c-2,-6 -7,-9 -14,-8 -2,7 2,13 10,14l4 -6z"/>
   <path class="fil0" d="M387 871c-2,-7 -7,-10 -14,-9 -2,7 2,13 10,15l4 -6z"/>
   <path class="fil0" d="M501 985c-2,-6 -7,-9 -13,-8 -2,7 2,13 9,14l4 -6z"/>
   <path class="fil0" d="M387 1100c-2,-6 -7,-9 -14,-8 -2,6 2,13 10,14l4 -6z"/>
   <path class="fil0" d="M501 1100c-2,-6 -7,-9 -13,-8 -2,6 2,13 9,14l4 -6z"/>
   <path class="fil0" d="M501 756c-2,-7 -7,-10 -13,-9 -2,7 2,13 9,15l4 -6z"/>
   <path class="fil0" d="M387 641c-2,-6 -7,-10 -14,-9 -2,7 2,13 10,15l4 -6z"/>
   <path class="fil0" d="M501 871c-2,-7 -7,-10 -13,-9 -2,7 2,13 9,15l4 -6z"/>
   <path class="fil0" d="M1130 354c-3,-7 -6,-9 -14,-9 -1,8 7,22 14,9z"/>
   <path class="fil0" d="M1130 928c-2,-6 -7,-10 -14,-9 -2,7 2,13 10,15l4 -6z"/>
   <path class="fil0" d="M1130 1043c-2,-7 -7,-10 -14,-9 -2,7 2,13 10,15l4 -6z"/>
   <path class="fil0" d="M1130 698c-2,-6 -7,-9 -14,-8 -2,6 2,13 10,14l4 -6z"/>
   <path class="fil0" d="M1130 813c-2,-6 -7,-10 -14,-8 -2,6 2,12 10,14l4 -6z"/>
   <path class="fil0" d="M1073 526c-3,-6 -7,-10 -14,-8 -2,6 2,12 10,14l4 -6z"/>
   <path class="fil0" d="M616 526c-3,-6 -7,-10 -14,-8 -2,6 2,12 10,14l4 -6z"/>
   <path class="fil0" d="M730 526c-3,-6 -7,-10 -14,-8 -2,6 2,12 10,14l4 -6z"/>
   <path class="fil0" d="M844 526c-2,-6 -7,-10 -14,-8 -2,6 3,12 10,14l4 -6z"/>
   <path class="fil0" d="M959 526c-3,-6 -7,-10 -14,-8 -2,6 2,12 10,14l4 -6z"/>
   <path class="fil0" d="M1130 125c-3,-7 -6,-10 -14,-10 -1,9 7,23 14,10z"/>
   <path class="fil0" d="M387 528c-1,-8 -7,-12 -14,-10 -2,7 6,20 14,10z"/>
   <path class="fil0" d="M501 528c-1,-8 -6,-12 -13,-10 -3,7 5,20 13,10z"/>
   <path class="fil0" d="M387 413c-1,-8 -6,-11 -14,-11 -1,7 5,22 14,11z"/>
   <path class="fil0" d="M501 413c-1,-8 -6,-11 -13,-11 -1,7 4,22 13,11z"/>
   <path class="fil0" d="M0 1140l10 -4c0,-10 -2,-10 -10,-17l0 21z"/>
   <path class="fil0" d="M0 680l10 -3c0,-11 -2,-11 -10,-17l0 20z"/>
   <path class="fil0" d="M0 795l10 -3c0,-11 -2,-11 -10,-17l0 20z"/>
   <path class="fil0" d="M0 1025l10 -4c0,-10 -2,-10 -10,-17l0 21z"/>
   <path class="fil0" d="M0 910l10 -4c0,-10 -2,-10 -10,-16l0 20z"/>
   <path class="fil0" d="M0 566l10 -4c0,-10 -2,-11 -10,-17l0 21z"/>
   <path class="fil0" d="M0 451l10 -4c0,-10 -2,-11 -10,-17l0 21z"/>
   <path class="fil0" d="M1130 469c-3,-6 -7,-10 -14,-9 -2,8 8,20 14,9z"/>
   <path class="fil0" d="M1016 469c-3,-6 -7,-10 -14,-9 -3,8 8,20 14,9z"/>
   <path class="fil0" d="M902 469c-3,-6 -7,-10 -14,-9 -3,8 7,20 14,9z"/>
   <path class="fil0" d="M673 469c-3,-6 -7,-10 -14,-9 -2,8 8,20 14,9z"/>
   <path class="fil0" d="M787 469c-2,-6 -6,-10 -14,-9 -2,8 8,20 14,9z"/>
   <path class="fil0" d="M673 584c-3,-7 -7,-10 -14,-9 -2,8 8,20 14,9z"/>
   <path class="fil0" d="M787 584c-2,-7 -6,-10 -14,-9 -2,8 8,20 14,9z"/>
   <path class="fil0" d="M902 584c-3,-7 -7,-10 -14,-9 -3,8 7,20 14,9z"/>
   <path class="fil0" d="M1130 584c-3,-7 -7,-10 -14,-9 -2,8 8,20 14,9z"/>
   <path class="fil0" d="M1016 584c-3,-7 -7,-10 -14,-9 -3,8 8,20 14,9z"/>
   <path class="fil0" d="M358 1148l13 0c0,-7 1,-8 -4,-13 -8,3 -6,5 -9,13z"/>
   <path class="fil0" d="M472 1148l13 0c0,-7 1,-8 -4,-13 -7,3 -6,5 -9,13z"/>
   <path class="fil0" d="M15 1148l13 0c0,-7 1,-8 -4,-13 -8,3 -6,5 -9,13z"/>
   <path class="fil0" d="M587 1148l13 0c-1,-7 1,-8 -4,-14 -8,4 -7,6 -9,14z"/>
   <path class="fil0" d="M1044 1148l13 0c0,-7 1,-8 -4,-14 -8,4 -7,6 -9,14z"/>
   <path class="fil0" d="M701 1148l13 0c0,-7 1,-8 -4,-14 -8,4 -7,6 -9,14z"/>
   <path class="fil0" d="M815 1148l13 0c0,-7 1,-8 -4,-14 -7,4 -6,6 -9,14z"/>
   <path class="fil0" d="M930 1148l12 0c0,-7 2,-8 -4,-14 -7,4 -6,6 -8,14z"/>
   <path class="fil0" d="M244 1148l13 0c0,-7 1,-8 -4,-13 -8,3 -6,5 -9,13z"/>
   <path class="fil0" d="M129 1148l13 0c0,-7 1,-8 -4,-13 -7,3 -6,5 -9,13z"/>
   <polygon class="fil0" points="27,0 16,0 21,4 "/>
   <polygon class="fil0" points="484,0 473,0 478,4 "/>
   <polygon class="fil0" points="370,0 359,0 364,4 "/>
   <polygon class="fil0" points="141,0 130,0 135,4 "/>
   <polygon class="fil0" points="256,0 244,0 250,4 "/>
   <polygon class="fil0" points="1056,0 1044,0 1050,4 "/>
   <polygon class="fil0" points="941,0 930,0 935,4 "/>
   <polygon class="fil0" points="827,0 816,0 821,4 "/>
   <polygon class="fil0" points="713,0 701,0 707,4 "/>
   <polygon class="fil0" points="599,0 587,0 592,4 "/>
   <polygon class="fil0" points="87,1148 87,1148 "/>
   <polygon class="fil0" points="201,1148 201,1148 "/>
   <polygon class="fil0" points="316,1148 315,1148 "/>
   <polygon class="fil0" points="430,1148 430,1148 "/>
   <polygon class="fil0" points="544,1148 544,1148 "/>
   <polygon class="fil0" points="658,1148 658,1148 "/>
   <polygon class="fil0" points="773,1148 773,1148 "/>
   <polygon class="fil0" points="887,1148 887,1148 "/>
   <polygon class="fil0" points="1001,1148 1001,1148 "/>
   <polygon class="fil0" points="1116,1148 1115,1148 "/>
  </g>
 </g>
</svg>
